<?xml version="1.0" encoding="UTF-8" standalone="no"?>
<!-- Created with Inkscape (http://www.inkscape.org/) -->

<svg
   version="1.1"
   id="svg1"
   width="512"
   height="512"
   viewBox="0 0 512 512"
   sodipodi:docname="verify.svg"
   xml:space="preserve"
   inkscape:version="1.3.2 (091e20e, 2023-11-25, custom)"
   xmlns:inkscape="http://www.inkscape.org/namespaces/inkscape"
   xmlns:sodipodi="http://sodipodi.sourceforge.net/DTD/sodipodi-0.dtd"
   xmlns="http://www.w3.org/2000/svg"
   xmlns:svg="http://www.w3.org/2000/svg"><defs
     id="defs1" /><sodipodi:namedview
     id="namedview1"
     pagecolor="#505050"
     bordercolor="#ffffff"
     borderopacity="1"
     inkscape:showpageshadow="0"
     inkscape:pageopacity="0"
     inkscape:pagecheckerboard="1"
     inkscape:deskcolor="#505050"
     showgrid="false"
     inkscape:zoom="0.42041016"
     inkscape:cx="177.2079"
     inkscape:cy="96.334494"
     inkscape:window-width="1920"
     inkscape:window-height="1051"
     inkscape:window-x="-9"
     inkscape:window-y="-9"
     inkscape:window-maximized="1"
     inkscape:current-layer="g1" /><g
     inkscape:groupmode="layer"
     inkscape:label="Image"
     id="g1"><g
       id="g43"
       style="fill:#ffcc00;fill-opacity:1"
       transform="matrix(1.1578785,0,0,1.1578785,-44.877277,-44.501545)"><path
         style="fill:#ffcc00;fill-opacity:1"
         d="m 260.4679,477.59354 c 0.24296,-0.0633 0.58007,-0.0592 0.74913,0.009 0.16906,0.0684 -0.0297,0.12021 -0.44175,0.11512 -0.41202,-0.005 -0.55034,-0.0611 -0.30738,-0.12437 z m 1.86807,0.008 c 0.17168,-0.0693 0.4526,-0.0693 0.62427,0 0.17168,0.0693 0.0312,0.12595 -0.31213,0.12595 -0.34335,0 -0.48382,-0.0567 -0.31214,-0.12595 z m -5.72771,-0.25491 c 0.18025,-0.0721 0.39563,-0.0633 0.47861,0.0197 0.083,0.083 -0.0645,0.142 -0.32775,0.13115 -0.2909,-0.012 -0.35007,-0.0711 -0.15086,-0.15086 z m 9.98838,0 c 0.18026,-0.0721 0.39563,-0.0633 0.47861,0.0197 0.083,0.083 -0.0645,0.142 -0.32774,0.13115 -0.2909,-0.012 -0.35007,-0.0711 -0.15087,-0.15086 z m -62.02975,-25.36223 -0.47569,-0.56185 0.56184,0.47569 c 0.528,0.44704 0.67553,0.648 0.4757,0.648 -0.0474,0 -0.30022,-0.25283 -0.56185,-0.56184 z m 155.78765,-15.60343 c 0.65651,-0.0516 1.66783,-0.051 2.24738,0.001 0.57956,0.0524 0.0424,0.0946 -1.19365,0.0938 -1.23606,-7.6e-4 -1.71024,-0.0436 -1.05373,-0.0952 z m -5.6104,-0.23643 c 0.18026,-0.0721 0.39564,-0.0633 0.47861,0.0197 0.083,0.083 -0.0645,0.142 -0.32774,0.13115 -0.2909,-0.012 -0.35007,-0.0711 -0.15087,-0.15086 z m 12.73519,0 c 0.18026,-0.0721 0.39564,-0.0633 0.47861,0.0197 0.083,0.083 -0.0645,0.142 -0.32774,0.13115 -0.2909,-0.012 -0.35007,-0.0711 -0.15087,-0.15086 z m -210.0058,-0.49942 c 0.18026,-0.0721 0.39563,-0.0633 0.47861,0.0197 0.083,0.083 -0.0645,0.142 -0.32774,0.13115 -0.2909,-0.012 -0.35007,-0.0712 -0.15087,-0.15086 z m 10.22249,0.005 c 0.17167,-0.0693 0.4526,-0.0693 0.62427,0 0.17168,0.0693 0.0312,0.12595 -0.31213,0.12595 -0.34336,0 -0.48382,-0.0567 -0.31214,-0.12595 z m 246.65069,-20.31081 c 0.24858,-0.27468 0.50815,-0.49942 0.57682,-0.49942 0.0687,0 -0.0785,0.22474 -0.32711,0.49942 -0.24858,0.27468 -0.50815,0.49942 -0.57682,0.49942 -0.0687,0 0.0785,-0.22474 0.32711,-0.49942 z m 3.24623,-3.24623 c 0.24858,-0.27468 0.50815,-0.49942 0.57682,-0.49942 0.0687,0 -0.0785,0.22474 -0.32711,0.49942 -0.24859,0.27468 -0.50816,0.49942 -0.57683,0.49942 -0.0687,0 0.0785,-0.22474 0.32712,-0.49942 z M 85.37398,365.75101 c 0.01198,-0.2909 0.07115,-0.35007 0.150866,-0.15087 0.07213,0.18026 0.06326,0.39563 -0.01971,0.47861 -0.08298,0.083 -0.141995,-0.0645 -0.131152,-0.32774 z m -0.229996,-3.59998 c 0,-0.34336 0.05668,-0.48382 0.12595,-0.31214 0.06927,0.17167 0.06927,0.4526 0,0.62427 -0.06927,0.17168 -0.12595,0.0312 -0.12595,-0.31213 z m 353.638056,-3.12138 c -7.6e-4,-1.23606 0.0415,-1.7732 0.0938,-1.19365 0.0524,0.57955 0.053,1.59088 0.001,2.24739 -0.0516,0.65651 -0.0944,0.18233 -0.0952,-1.05374 z M 85.12427,354.51407 c 0.01198,-0.2909 0.07115,-0.35007 0.150866,-0.15086 0.07213,0.18026 0.06326,0.39563 -0.01971,0.47861 -0.08298,0.083 -0.141995,-0.0645 -0.131152,-0.32775 z M 438.4634,352.5164 c 0.012,-0.2909 0.0712,-0.35007 0.15087,-0.15087 0.0721,0.18026 0.0633,0.39563 -0.0197,0.47861 -0.083,0.083 -0.142,-0.0645 -0.13116,-0.32774 z m -247.98167,-43.74081 -39.82839,-39.89111 39.89111,39.82839 c 21.94011,21.90562 39.89111,39.85662 39.89111,39.89111 0,0.0345 -0.0282,0.0627 -0.0627,0.0627 -0.0345,0 -17.98549,-17.951 -39.89111,-39.89111 z m 44.69832,34.80264 c 0,-0.0519 0.19664,-0.2485 0.43699,-0.43699 0.39605,-0.31061 0.40488,-0.30177 0.0943,0.0943 -0.32621,0.41595 -0.53127,0.54823 -0.53127,0.34271 z m 2.7468,-2.99651 c 0,-0.0519 0.19665,-0.2485 0.437,-0.43699 0.39605,-0.31061 0.40488,-0.30178 0.0943,0.0943 -0.32621,0.41596 -0.53127,0.54824 -0.53127,0.34272 z m 2.74681,-2.99652 c 0,-0.0519 0.19665,-0.2485 0.43699,-0.43699 0.39605,-0.31061 0.40489,-0.30177 0.0943,0.0943 -0.32621,0.41595 -0.53127,0.54823 -0.53127,0.34271 z m 16.23113,-17.72938 c 0,-0.0519 0.19664,-0.2485 0.43699,-0.43699 0.39605,-0.31061 0.40488,-0.30178 0.0943,0.0943 -0.32622,0.41596 -0.53127,0.54824 -0.53127,0.34272 z m 2.7468,-2.99652 c 0,-0.0519 0.19665,-0.2485 0.43699,-0.43699 0.39606,-0.31061 0.40489,-0.30177 0.0943,0.0943 -0.32621,0.41595 -0.53127,0.54823 -0.53127,0.34271 z m 194.64866,-0.65485 c 0.24859,-0.27468 0.50816,-0.49942 0.57683,-0.49942 0.0687,0 -0.0785,0.22474 -0.32712,0.49942 -0.24858,0.27468 -0.50815,0.49942 -0.57682,0.49942 -0.0687,0 0.0785,-0.22474 0.32711,-0.49942 z M 262.3984,313.86279 c 0,-0.0519 0.19664,-0.2485 0.43699,-0.437 0.39605,-0.3106 0.40489,-0.30177 0.0943,0.0943 -0.32621,0.41596 -0.53127,0.54824 -0.53127,0.34272 z m 13.48432,-14.73287 c 0,-0.0519 0.19664,-0.2485 0.43699,-0.43699 0.39605,-0.31061 0.40489,-0.30178 0.0943,0.0943 -0.32621,0.41595 -0.53127,0.54823 -0.53127,0.34271 z m 2.7468,-2.99652 c 0,-0.0519 0.19665,-0.2485 0.437,-0.43699 0.39605,-0.31061 0.40488,-0.30177 0.0943,0.0943 -0.32621,0.41595 -0.53127,0.54823 -0.53127,0.34271 z m 2.74681,-2.99651 c 0,-0.0519 0.19665,-0.2485 0.43699,-0.437 0.39606,-0.3106 0.40489,-0.30177 0.0943,0.0943 -0.32621,0.41596 -0.53127,0.54824 -0.53127,0.34272 z m -51.44019,-7.24158 c 0,-0.0519 0.19665,-0.2485 0.437,-0.43699 0.39605,-0.31061 0.40488,-0.30178 0.0943,0.0943 -0.32622,0.41596 -0.53128,0.54824 -0.53128,0.34272 z m 2.74681,-2.99652 c 0,-0.0519 0.19665,-0.2485 0.43699,-0.43699 0.39606,-0.31061 0.40489,-0.30177 0.0943,0.0943 -0.32621,0.41595 -0.53127,0.54823 -0.53127,0.34271 z m 64.92451,-7.49129 c 0,-0.0519 0.19664,-0.2485 0.43699,-0.43699 0.39605,-0.31061 0.40488,-0.30177 0.0943,0.0943 -0.32622,0.41595 -0.53127,0.54823 -0.53127,0.34271 z m 2.7468,-2.99651 c 0,-0.0519 0.19665,-0.2485 0.43699,-0.437 0.39606,-0.3106 0.40489,-0.30177 0.0943,0.0943 -0.32621,0.41596 -0.53127,0.54824 -0.53127,0.34272 z m -56.43438,-1.74797 c 0,-0.0519 0.19665,-0.2485 0.437,-0.43699 0.39605,-0.31061 0.40488,-0.30178 0.0943,0.0943 -0.32622,0.41595 -0.53128,0.54823 -0.53128,0.34271 z m 59.18119,-1.24855 c 0,-0.0519 0.19664,-0.2485 0.43699,-0.43699 0.39605,-0.31061 0.40489,-0.30178 0.0943,0.0943 -0.32621,0.41595 -0.53127,0.54823 -0.53127,0.34271 z m -56.43438,-1.74797 c 0,-0.0519 0.19665,-0.2485 0.43699,-0.43699 0.39606,-0.3106 0.40489,-0.30177 0.0943,0.0943 -0.32621,0.41595 -0.53127,0.54823 -0.53127,0.34271 z m 2.74681,-2.99651 c 0,-0.0519 0.19664,-0.2485 0.43699,-0.43699 0.39605,-0.31061 0.40488,-0.30178 0.0943,0.0943 -0.32622,0.41595 -0.53127,0.54823 -0.53127,0.34271 z m 230.25199,-0.55081 c 0.012,-0.29089 0.0712,-0.35006 0.15087,-0.15086 0.0721,0.18026 0.0633,0.39563 -0.0197,0.47861 -0.083,0.083 -0.142,-0.0645 -0.13116,-0.32775 z M 43.192765,260.26949 c 0,-0.34335 0.05668,-0.48381 0.12595,-0.31213 0.06927,0.17167 0.06927,0.4526 0,0.62427 -0.06927,0.17168 -0.12595,0.0312 -0.12595,-0.31214 z m 436.742155,0 c 0,-0.34335 0.0567,-0.48381 0.12595,-0.31213 0.0693,0.17167 0.0693,0.4526 0,0.62427 -0.0693,0.17168 -0.12595,0.0312 -0.12595,-0.31214 z M 43.192765,258.27182 c 0,-0.34335 0.05668,-0.48382 0.12595,-0.31214 0.06927,0.17167 0.06927,0.4526 0,0.62427 -0.06927,0.17168 -0.12595,0.0312 -0.12595,-0.31213 z m 436.742155,0 c 0,-0.34335 0.0567,-0.48382 0.12595,-0.31214 0.0693,0.17167 0.0693,0.4526 0,0.62427 -0.0693,0.17168 -0.12595,0.0312 -0.12595,-0.31213 z M 43.422761,254.38051 c 0.01198,-0.2909 0.07115,-0.35007 0.150866,-0.15087 0.07213,0.18026 0.06326,0.39564 -0.01971,0.47861 -0.08298,0.083 -0.141995,-0.0645 -0.131152,-0.32774 z m 273.162629,0.30109 c 0,-0.0519 0.19664,-0.2485 0.43699,-0.43699 0.39605,-0.31061 0.40489,-0.30177 0.0943,0.0943 -0.32621,0.41595 -0.53127,0.54823 -0.53127,0.34271 z m 163.0801,-0.30109 c 0.012,-0.2909 0.0712,-0.35007 0.15087,-0.15087 0.0721,0.18026 0.0633,0.39564 -0.0197,0.47861 -0.083,0.083 -0.142,-0.0645 -0.13116,-0.32774 z m -309.90937,-4.47397 c 2.12545,-2.12877 3.92064,-3.8705 3.98931,-3.8705 0.0687,0 -1.61415,1.74173 -3.7396,3.8705 -2.12545,2.12878 -3.92064,3.8705 -3.98931,3.8705 -0.0687,0 1.61415,-1.74172 3.7396,-3.8705 z m 90.89431,2.52768 c 0,-0.0519 0.19665,-0.2485 0.43699,-0.437 0.39606,-0.3106 0.40489,-0.30177 0.0943,0.0943 -0.32621,0.41596 -0.53127,0.54824 -0.53127,0.34272 z m 58.68176,-0.74913 c 0,-0.0519 0.19665,-0.2485 0.437,-0.43699 0.39605,-0.31061 0.40488,-0.30178 0.0943,0.0943 -0.32622,0.41596 -0.53128,0.54824 -0.53128,0.34272 z m -55.93495,-2.24739 c 0,-0.0519 0.19664,-0.2485 0.43699,-0.43699 0.39605,-0.31061 0.40488,-0.30178 0.0943,0.0943 -0.32622,0.41595 -0.53127,0.54823 -0.53127,0.34271 z m 58.68176,-0.74913 c 0,-0.0519 0.19665,-0.2485 0.43699,-0.43699 0.39606,-0.31061 0.40489,-0.30177 0.0943,0.0943 -0.32621,0.41595 -0.53127,0.54823 -0.53127,0.34271 z m -55.93496,-2.24739 c 0,-0.0519 0.19665,-0.2485 0.43699,-0.43699 0.39606,-0.3106 0.40489,-0.30177 0.0943,0.0943 -0.32621,0.41596 -0.53127,0.54823 -0.53127,0.34271 z m 11.23694,-12.23577 c 0,-0.0519 0.19664,-0.2485 0.43699,-0.43699 0.39605,-0.31061 0.40488,-0.30177 0.0943,0.0943 -0.32622,0.41595 -0.53127,0.54823 -0.53127,0.34271 z m 2.7468,-2.99651 c 0,-0.0519 0.19665,-0.2485 0.43699,-0.437 0.39606,-0.3106 0.40489,-0.30177 0.0943,0.0943 -0.32621,0.41596 -0.53127,0.54824 -0.53127,0.34272 z m 58.18235,-0.24971 c 0,-0.0519 0.19664,-0.2485 0.43699,-0.43699 0.39605,-0.31061 0.40488,-0.30178 0.0943,0.0943 -0.32622,0.41596 -0.53127,0.54824 -0.53127,0.34272 z m -55.43554,-2.74681 c 0,-0.0519 0.19664,-0.2485 0.43699,-0.43699 0.39605,-0.31061 0.40489,-0.30177 0.0943,0.0943 -0.32621,0.41595 -0.53127,0.54823 -0.53127,0.34271 z m 58.18234,-0.24971 c 0,-0.0519 0.19665,-0.2485 0.43699,-0.43699 0.39606,-0.31061 0.40489,-0.30177 0.0943,0.0943 -0.32621,0.41595 -0.53127,0.54823 -0.53127,0.34271 z m -46.94541,-11.98606 c 0,-0.0519 0.19665,-0.2485 0.43699,-0.43699 0.39606,-0.31061 0.40489,-0.30178 0.0943,0.0943 -0.32621,0.41595 -0.53127,0.54823 -0.53127,0.34271 z m 2.74681,-2.99652 c 0,-0.0519 0.19664,-0.2485 0.43699,-0.43699 0.39605,-0.31061 0.40488,-0.30177 0.0943,0.0943 -0.32621,0.41595 -0.53127,0.54823 -0.53127,0.34271 z m 60.42973,-2.7468 c 0,-0.0519 0.19665,-0.2485 0.43699,-0.43699 0.39605,-0.31061 0.40489,-0.30178 0.0943,0.0943 -0.32621,0.41596 -0.53127,0.54824 -0.53127,0.34272 z m -57.68293,-0.24971 c 0,-0.0519 0.19665,-0.2485 0.437,-0.43699 0.39605,-0.31061 0.40488,-0.30178 0.0943,0.0943 -0.32621,0.41595 -0.53127,0.54823 -0.53127,0.34271 z m 60.42974,-2.74681 c 0,-0.0519 0.19664,-0.2485 0.43699,-0.43699 0.39605,-0.31061 0.40488,-0.30177 0.0943,0.0943 -0.32622,0.41595 -0.53127,0.54823 -0.53127,0.34271 z m 98.10403,-1.09184 c -0.31061,-0.39605 -0.30177,-0.40489 0.0943,-0.0943 0.41595,0.32621 0.54823,0.53127 0.34271,0.53127 -0.0519,0 -0.2485,-0.19664 -0.43699,-0.43699 z m -3.73269,-3.74564 -0.60538,-0.68671 0.68671,0.60538 c 0.64182,0.56581 0.80121,0.76803 0.60537,0.76803 -0.0447,0 -0.35375,-0.30902 -0.6867,-0.6867 z m -94.65291,-0.49942 c -0.3106,-0.39606 -0.30177,-0.40489 0.0943,-0.0943 0.24035,0.18849 0.43699,0.38514 0.43699,0.43699 0,0.20552 -0.20505,0.0732 -0.53127,-0.34271 z m -3.24622,-2.99652 c -0.31061,-0.39605 -0.30178,-0.40489 0.0943,-0.0943 0.24034,0.18849 0.43699,0.38514 0.43699,0.43699 0,0.20552 -0.20506,0.0732 -0.53127,-0.34271 z m -45.66501,-1.15554 c 0,-0.0519 0.19664,-0.2485 0.43699,-0.437 0.39605,-0.3106 0.40488,-0.30177 0.0943,0.0943 -0.32622,0.41596 -0.53127,0.54824 -0.53127,0.34272 z m 42.16907,-2.09068 c -0.3106,-0.39606 -0.30177,-0.40489 0.0943,-0.0943 0.24035,0.18849 0.43699,0.38513 0.43699,0.43699 0,0.20552 -0.20505,0.0732 -0.53127,-0.34271 z m -39.42227,-0.90584 c 0,-0.0519 0.19665,-0.2485 0.43699,-0.43699 0.39606,-0.31061 0.40489,-0.30178 0.0943,0.0943 -0.32621,0.41595 -0.53127,0.54823 -0.53127,0.34271 z m 36.17605,-2.09068 c -0.31061,-0.39605 -0.30178,-0.40489 0.0943,-0.0943 0.24034,0.18849 0.43699,0.38514 0.43699,0.43699 0,0.20552 -0.20506,0.0732 -0.53127,-0.34271 z m -33.42924,-0.90584 c 0,-0.0519 0.19665,-0.2485 0.43699,-0.43699 0.39605,-0.3106 0.40489,-0.30177 0.0943,0.0943 -0.32621,0.41595 -0.53127,0.54823 -0.53127,0.34271 z m 30.18301,-2.09068 c -0.3106,-0.39605 -0.30177,-0.40488 0.0943,-0.0943 0.24035,0.1885 0.43699,0.38514 0.43699,0.437 0,0.20552 -0.20505,0.0732 -0.53127,-0.34272 z m -3.49593,-3.24622 c -0.31061,-0.39605 -0.30178,-0.40489 0.0943,-0.0943 0.24034,0.18849 0.43699,0.38514 0.43699,0.43699 0,0.20552 -0.20506,0.0732 -0.53127,-0.34271 z m -3.24623,-2.99652 c -0.3106,-0.39605 -0.30177,-0.40488 0.0943,-0.0943 0.24035,0.1885 0.43699,0.38514 0.43699,0.437 0,0.20552 -0.20505,0.0732 -0.53127,-0.34272 z m -3.24622,-2.99651 c -0.31061,-0.39606 -0.30178,-0.40489 0.0943,-0.0943 0.24034,0.18849 0.43699,0.38514 0.43699,0.43699 0,0.20552 -0.20506,0.0732 -0.53127,-0.34271 z m -8.9577,-0.90584 c 0,-0.0519 0.19665,-0.2485 0.43699,-0.43699 0.39606,-0.31061 0.40489,-0.30177 0.0943,0.0943 -0.32621,0.41595 -0.53127,0.54823 -0.53127,0.34271 z m 5.46176,-2.34039 c -0.3106,-0.39605 -0.30177,-0.40488 0.0943,-0.0943 0.24035,0.1885 0.43699,0.38514 0.43699,0.43699 0,0.20552 -0.20505,0.0733 -0.53127,-0.34271 z m -2.71495,-0.65612 c 0,-0.0519 0.19664,-0.2485 0.43699,-0.437 0.39605,-0.3106 0.40489,-0.30177 0.0943,0.0943 -0.32621,0.41596 -0.53127,0.54824 -0.53127,0.34272 z m 107.64457,-10.03977 c 0.012,-0.2909 0.0711,-0.35007 0.15086,-0.15087 0.0721,0.18026 0.0633,0.39563 -0.0197,0.47861 -0.083,0.083 -0.142,-0.0645 -0.13115,-0.32774 z m -352.83972,-2.4971 c 0.01198,-0.2909 0.07115,-0.35007 0.150866,-0.15087 0.07213,0.18026 0.06326,0.39564 -0.01971,0.47861 -0.08298,0.083 -0.141995,-0.0645 -0.131152,-0.32774 z m 353.11839,-3.47513 c 0.005,-0.41202 0.0611,-0.55034 0.12437,-0.30738 0.0633,0.24296 0.0591,0.58007 -0.009,0.74913 -0.0684,0.16906 -0.1202,-0.0297 -0.11511,-0.44175 z m -353.098676,-4.1202 c 0,-0.34336 0.05668,-0.48382 0.12595,-0.31214 0.06927,0.17167 0.06927,0.4526 0,0.62427 -0.06927,0.17168 -0.12595,0.0312 -0.12595,-0.31213 z m 352.820006,-2.14335 c 0.012,-0.29089 0.0711,-0.35006 0.15086,-0.15086 0.0721,0.18026 0.0633,0.39563 -0.0197,0.47861 -0.083,0.083 -0.142,-0.0645 -0.13115,-0.32775 z M 85.37398,152.74869 c 0.01198,-0.2909 0.07115,-0.35007 0.150866,-0.15087 0.07213,0.18026 0.06326,0.39563 -0.01971,0.47861 -0.08298,0.083 -0.141995,-0.0645 -0.131152,-0.32774 z m 331.56283,-46.98703 c -0.31061,-0.39606 -0.30177,-0.40489 0.0943,-0.0943 0.41595,0.32621 0.54823,0.53127 0.34271,0.53127 -0.0519,0 -0.2485,-0.19665 -0.43699,-0.43699 z m -310.85664,0.093 c 0,-0.0519 0.19664,-0.2485 0.43699,-0.43699 0.39605,-0.31061 0.40488,-0.30178 0.0943,0.0943 -0.32622,0.41595 -0.53127,0.54823 -0.53127,0.34271 z m 1.49825,-1.49826 c 0,-0.0518 0.19665,-0.2485 0.437,-0.43699 0.39605,-0.31061 0.40488,-0.30177 0.0943,0.0943 -0.32621,0.41595 -0.53127,0.54823 -0.53127,0.34271 z m 246.6663,-21.551328 c 0.18026,-0.07213 0.39564,-0.06326 0.47861,0.01971 0.083,0.08298 -0.0645,0.141995 -0.32774,0.131152 -0.2909,-0.01198 -0.35007,-0.07115 -0.15087,-0.150866 z m 12.23578,0 c 0.18025,-0.07213 0.39563,-0.06326 0.47861,0.01971 0.083,0.08298 -0.0645,0.141995 -0.32775,0.131152 -0.2909,-0.01198 -0.35007,-0.07115 -0.15086,-0.150866 z M 161.82784,82.544037 c 0.51503,-0.05387 1.3578,-0.05387 1.87282,0 0.51503,0.05387 0.0936,0.09795 -0.93641,0.09795 -1.03005,0 -1.45143,-0.04408 -0.93641,-0.09795 z m 198.1446,0.01653 c 0.17167,-0.06927 0.4526,-0.06927 0.62427,0 0.17168,0.06927 0.0312,0.12595 -0.31214,0.12595 -0.34335,0 -0.48381,-0.05668 -0.31213,-0.12595 z m -153.509,-17.938571 c 0.32256,-0.343351 0.64266,-0.624274 0.71133,-0.624274 0.0687,0 -0.13906,0.280923 -0.46162,0.624274 -0.32256,0.343351 -0.64266,0.624274 -0.71133,0.624274 -0.0687,0 0.13906,-0.280923 0.46162,-0.624274 z m 60.1332,-23.518431 c 0.18026,-0.07213 0.39563,-0.06326 0.47861,0.01971 0.083,0.08298 -0.0645,0.141995 -0.32774,0.131152 -0.2909,-0.01198 -0.35007,-0.07115 -0.15087,-0.150866 z m -6.25835,-0.244508 c 0.17168,-0.06927 0.4526,-0.06927 0.62428,0 0.17167,0.06927 0.0312,0.12595 -0.31214,0.12595 -0.34335,0 -0.48381,-0.05668 -0.31214,-0.12595 z m 1.99768,0 c 0.17168,-0.06927 0.4526,-0.06927 0.62427,0 0.17168,0.06927 0.0312,0.12595 -0.31213,0.12595 -0.34335,0 -0.48382,-0.05668 -0.31214,-0.12595 z"
         id="path46" /><path
         style="fill:#ffcc00;fill-opacity:1"
         d="m 261.60245,477.59601 c 0.18026,-0.0721 0.39563,-0.0633 0.47861,0.0197 0.083,0.083 -0.0645,0.142 -0.32775,0.13115 -0.29089,-0.012 -0.35006,-0.0711 -0.15086,-0.15086 z m 4.24506,-0.24971 c 0.18026,-0.0721 0.39564,-0.0633 0.47861,0.0197 0.083,0.083 -0.0645,0.142 -0.32774,0.13115 -0.2909,-0.012 -0.35007,-0.0711 -0.15087,-0.15086 z m 48.24078,-20.89931 c 0,-0.0519 0.19665,-0.2485 0.43699,-0.43699 0.39606,-0.31061 0.40489,-0.30178 0.0943,0.0943 -0.32621,0.41595 -0.53127,0.54823 -0.53127,0.34271 z m -107.38235,-2.34039 -1.6159,-1.68554 1.68554,1.6159 c 1.5656,1.50091 1.79969,1.75518 1.6159,1.75518 -0.0383,0 -0.7968,-0.75849 -1.68554,-1.68554 z m 111.62742,-1.90468 c 0,-0.0518 0.19664,-0.2485 0.43699,-0.43699 0.39605,-0.3106 0.40488,-0.30177 0.0943,0.0943 -0.32622,0.41596 -0.53127,0.54823 -0.53127,0.34271 z m -115.64742,-2.34039 c -0.3106,-0.39605 -0.30177,-0.40488 0.0943,-0.0943 0.41596,0.32621 0.54823,0.53127 0.34271,0.53127 -0.0519,0 -0.2485,-0.19665 -0.43699,-0.437 z m 152.80733,-13.71732 c 0.18026,-0.0721 0.39563,-0.0633 0.47861,0.0197 0.083,0.083 -0.0645,0.142 -0.32774,0.13115 -0.2909,-0.012 -0.35007,-0.0711 -0.15087,-0.15086 z m 11.23693,0 c 0.18026,-0.0721 0.39564,-0.0633 0.47861,0.0197 0.083,0.083 -0.0645,0.142 -0.32774,0.13115 -0.2909,-0.012 -0.35007,-0.0711 -0.15087,-0.15086 z m -208.52315,-0.49422 c 0.17168,-0.0693 0.4526,-0.0693 0.62428,0 0.17167,0.0693 0.0312,0.12595 -0.31214,0.12595 -0.34335,0 -0.48381,-0.0567 -0.31214,-0.12595 z m 8.75545,-0.005 c 0.18026,-0.0721 0.39563,-0.0633 0.47861,0.0197 0.083,0.083 -0.0645,0.142 -0.32775,0.13115 -0.2909,-0.012 -0.35007,-0.0712 -0.15086,-0.15086 z m -11.98607,-0.24971 c 0.18026,-0.0721 0.39564,-0.0633 0.47861,0.0197 0.083,0.083 -0.0645,0.142 -0.32774,0.13115 -0.2909,-0.012 -0.35007,-0.0711 -0.15087,-0.15086 z m 260.98296,-21.61659 c 1.03479,-1.10251 1.25898,-1.30076 1.25898,-1.11326 0,0.0401 -0.53375,0.57383 -1.18612,1.18613 l -1.18612,1.11325 z m -308.89929,-0.12485 -0.60537,-0.6867 0.6867,0.60537 c 0.64183,0.56581 0.80122,0.76803 0.60538,0.76803 -0.0447,0 -0.35375,-0.30902 -0.68671,-0.6867 z m 312.15595,-3.40293 c 0,-0.0519 0.19665,-0.2485 0.43699,-0.437 0.39605,-0.3106 0.40489,-0.30177 0.0943,0.0943 -0.32621,0.41596 -0.53127,0.54824 -0.53127,0.34272 z m 19.24735,-45.74825 c 0.012,-0.2909 0.0712,-0.35007 0.15087,-0.15087 0.0721,0.18026 0.0633,0.39564 -0.0197,0.47861 -0.083,0.083 -0.142,-0.0645 -0.13116,-0.32774 z M 85.153237,361.02733 c 0.0051,-0.41202 0.06105,-0.55034 0.124365,-0.30738 0.06331,0.24296 0.05915,0.58006 -0.0093,0.74913 -0.0684,0.16906 -0.120202,-0.0297 -0.115113,-0.44175 z m 0.01429,-5.2439 c 0.0028,-0.54936 0.05391,-0.7447 0.113637,-0.43408 0.05973,0.31062 0.05746,0.76009 -0.005,0.99884 -0.0625,0.23874 -0.11137,-0.0154 -0.108598,-0.56476 z M 438.4634,353.26552 c 0.012,-0.29089 0.0712,-0.35006 0.15087,-0.15086 0.0721,0.18026 0.0633,0.39563 -0.0197,0.47861 -0.083,0.083 -0.142,-0.0645 -0.13116,-0.32775 z m -205.28103,-7.4399 c 0,-0.0519 0.19665,-0.2485 0.43699,-0.43699 0.39606,-0.31061 0.40489,-0.30178 0.0943,0.0943 -0.32621,0.41595 -0.53127,0.54823 -0.53127,0.34271 z m 2.74681,-2.99652 c 0,-0.0519 0.19664,-0.2485 0.43699,-0.43699 0.39605,-0.3106 0.40488,-0.30177 0.0943,0.0943 -0.32622,0.41595 -0.53127,0.54823 -0.53127,0.34271 z m 2.7468,-2.99651 c 0,-0.0519 0.19665,-0.2485 0.43699,-0.43699 0.39606,-0.31061 0.40489,-0.30178 0.0943,0.0943 -0.32621,0.41595 -0.53127,0.54823 -0.53127,0.34271 z m 5.2439,-5.74332 c 0,-0.0519 0.19665,-0.2485 0.437,-0.437 0.39605,-0.3106 0.40488,-0.30177 0.0943,0.0943 -0.32622,0.41596 -0.53128,0.54824 -0.53128,0.34272 z m 2.74681,-2.99652 c 0,-0.0519 0.19665,-0.2485 0.43699,-0.43699 0.39606,-0.31061 0.40489,-0.30177 0.0943,0.0943 -0.32621,0.41595 -0.53127,0.54823 -0.53127,0.34271 z m 2.74681,-2.99651 c 0,-0.0519 0.19664,-0.2485 0.43699,-0.437 0.39605,-0.3106 0.40488,-0.30177 0.0943,0.0943 -0.32622,0.41596 -0.53127,0.54824 -0.53127,0.34272 z m 2.7468,-2.99652 c 0,-0.0519 0.19665,-0.2485 0.43699,-0.43699 0.39606,-0.31061 0.40489,-0.30178 0.0943,0.0943 -0.32621,0.41595 -0.53127,0.54823 -0.53127,0.34271 z m 2.74681,-2.99652 c 0,-0.0519 0.19664,-0.2485 0.43699,-0.43699 0.39605,-0.3106 0.40489,-0.30177 0.0943,0.0943 -0.32621,0.41595 -0.53127,0.54823 -0.53127,0.34271 z m 2.7468,-2.99651 c 0,-0.0519 0.19665,-0.2485 0.437,-0.43699 0.39605,-0.31061 0.40488,-0.30178 0.0943,0.0943 -0.32622,0.41595 -0.53128,0.54823 -0.53128,0.34271 z m 194.2741,-0.74913 c 0,-0.0519 0.19665,-0.2485 0.43699,-0.43699 0.39606,-0.31061 0.40489,-0.30178 0.0943,0.0943 -0.32621,0.41595 -0.53127,0.54823 -0.53127,0.34271 z m -191.52729,-2.24739 c 0,-0.0519 0.19665,-0.2485 0.43699,-0.43699 0.39606,-0.31061 0.40489,-0.30177 0.0943,0.0943 -0.32621,0.41595 -0.53127,0.54823 -0.53127,0.34271 z m 196.02206,-2.02825 c 0.88478,-0.89271 1.66487,-1.62311 1.73354,-1.62311 0.0687,0 -0.59905,0.7304 -1.48383,1.62311 -0.88477,0.89271 -1.66487,1.62311 -1.73354,1.62311 -0.0687,0 0.59906,-0.7304 1.48383,-1.62311 z M 64.346804,311.5224 c -0.310606,-0.39606 -0.301774,-0.40489 0.09428,-0.0943 0.240345,0.18849 0.436991,0.38514 0.436991,0.43699 0,0.20552 -0.205057,0.0732 -0.531271,-0.34271 z m 201.297816,-1.15555 c 0,-0.0519 0.19665,-0.2485 0.43699,-0.43699 0.39606,-0.31061 0.40489,-0.30177 0.0943,0.0943 -0.32621,0.41595 -0.53127,0.54823 -0.53127,0.34271 z m 2.74681,-2.99651 c 0,-0.0519 0.19665,-0.2485 0.43699,-0.437 0.39605,-0.3106 0.40489,-0.30177 0.0943,0.0943 -0.32621,0.41596 -0.53127,0.54824 -0.53127,0.34272 z m 2.7468,-2.99652 c 0,-0.0519 0.19665,-0.2485 0.437,-0.43699 0.39605,-0.31061 0.40488,-0.30178 0.0943,0.0943 -0.32622,0.41595 -0.53128,0.54823 -0.53128,0.34271 z m 2.74681,-2.99652 c 0,-0.0519 0.19665,-0.2485 0.43699,-0.43699 0.39606,-0.3106 0.40489,-0.30177 0.0943,0.0943 -0.32621,0.41596 -0.53127,0.54823 -0.53127,0.34271 z m 2.74681,-2.99651 c 0,-0.0519 0.19664,-0.2485 0.43699,-0.43699 0.39605,-0.31061 0.40488,-0.30178 0.0943,0.0943 -0.32622,0.41595 -0.53127,0.54823 -0.53127,0.34271 z m 2.7468,-2.99652 c 0,-0.0519 0.19665,-0.2485 0.43699,-0.43699 0.39606,-0.31061 0.40489,-0.30177 0.0943,0.0943 -0.32621,0.41595 -0.53127,0.54823 -0.53127,0.34271 z m 5.24391,-5.74332 c 0,-0.0519 0.19664,-0.2485 0.43699,-0.43699 0.39605,-0.31061 0.40488,-0.30177 0.0943,0.0943 -0.32622,0.41595 -0.53127,0.54823 -0.53127,0.34271 z m -55.31069,-3.15194 c 0.24858,-0.27469 0.50815,-0.49942 0.57682,-0.49942 0.0687,0 -0.0785,0.22473 -0.32711,0.49942 -0.24858,0.27468 -0.50815,0.49941 -0.57682,0.49941 -0.0687,0 0.0785,-0.22473 0.32711,-0.49941 z m 58.05749,0.15543 c 0,-0.0519 0.19665,-0.2485 0.43699,-0.437 0.39606,-0.3106 0.40489,-0.30177 0.0943,0.0943 -0.32621,0.41596 -0.53127,0.54824 -0.53127,0.34272 z m -55.43554,-2.99652 c 0,-0.0519 0.19665,-0.2485 0.43699,-0.43699 0.39606,-0.31061 0.40489,-0.30178 0.0943,0.0943 -0.32621,0.41595 -0.53127,0.54823 -0.53127,0.34271 z m 58.18235,0 c 0,-0.0519 0.19664,-0.2485 0.43699,-0.43699 0.39605,-0.31061 0.40488,-0.30178 0.0943,0.0943 -0.32621,0.41595 -0.53127,0.54823 -0.53127,0.34271 z m 2.7468,-2.99652 c 0,-0.0519 0.19665,-0.2485 0.43699,-0.43699 0.39606,-0.3106 0.40489,-0.30177 0.0943,0.0943 -0.32621,0.41596 -0.53127,0.54823 -0.53127,0.34271 z m -57.93263,-0.2497 c 0,-0.0519 0.19664,-0.2485 0.43699,-0.437 0.39605,-0.3106 0.40489,-0.30177 0.0943,0.0943 -0.32621,0.41596 -0.53127,0.54823 -0.53127,0.34272 z m 60.67944,-2.74681 c 0,-0.0519 0.19665,-0.2485 0.43699,-0.43699 0.39605,-0.31061 0.40489,-0.30178 0.0943,0.0943 -0.32621,0.41595 -0.53127,0.54823 -0.53127,0.34271 z m -57.93264,-0.24971 c 0,-0.0518 0.19665,-0.2485 0.437,-0.43699 0.39605,-0.31061 0.40488,-0.30178 0.0943,0.0943 -0.32621,0.41595 -0.53127,0.54823 -0.53127,0.34271 z m 60.67945,-2.74681 c 0,-0.0519 0.19664,-0.2485 0.43699,-0.43699 0.39605,-0.3106 0.40488,-0.30177 0.0943,0.0943 -0.32622,0.41595 -0.53127,0.54823 -0.53127,0.34271 z m -57.93264,-0.24971 c 0,-0.0519 0.19665,-0.2485 0.43699,-0.43699 0.39605,-0.3106 0.40489,-0.30177 0.0943,0.0943 -0.32621,0.41595 -0.53127,0.54823 -0.53127,0.34271 z m 60.67944,-2.7468 c 0,-0.0519 0.19665,-0.2485 0.43699,-0.43699 0.39606,-0.31061 0.40489,-0.30178 0.0943,0.0943 -0.32621,0.41595 -0.53127,0.54823 -0.53127,0.34271 z m -57.93263,-0.24971 c 0,-0.0519 0.19664,-0.2485 0.43699,-0.43699 0.39605,-0.31061 0.40488,-0.30178 0.0943,0.0943 -0.32622,0.41595 -0.53127,0.54823 -0.53127,0.34271 z m 2.7468,-2.99652 c 0,-0.0519 0.19665,-0.2485 0.43699,-0.43699 0.39606,-0.31061 0.40489,-0.30177 0.0943,0.0943 -0.32621,0.41595 -0.53127,0.54823 -0.53127,0.34271 z m 60.42973,-2.49709 c 0,-0.0519 0.19665,-0.2485 0.437,-0.437 0.39605,-0.3106 0.40488,-0.30177 0.0943,0.0943 -0.32621,0.41596 -0.53127,0.54824 -0.53127,0.34272 z m -57.68292,-0.49942 c 0,-0.0519 0.19664,-0.2485 0.43699,-0.437 0.39605,-0.3106 0.40489,-0.30177 0.0943,0.0943 -0.32621,0.41596 -0.53127,0.54824 -0.53127,0.34272 z M 43.422761,263.37006 c 0.01198,-0.2909 0.07115,-0.35007 0.150866,-0.15087 0.07213,0.18026 0.06326,0.39563 -0.01971,0.47861 -0.08298,0.083 -0.141995,-0.0645 -0.131152,-0.32774 z M 309.0941,262.92202 c 0,-0.0519 0.19665,-0.2485 0.43699,-0.43699 0.39605,-0.31061 0.40489,-0.30178 0.0943,0.0943 -0.32621,0.41595 -0.53127,0.54823 -0.53127,0.34271 z m -147.5784,-4.77506 c 2.40052,-2.40345 4.42076,-4.36992 4.48943,-4.36992 0.0687,0 -1.8392,1.96647 -4.23972,4.36992 -2.40051,2.40346 -4.42075,4.36992 -4.48942,4.36992 -0.0687,0 1.8392,-1.96646 4.23971,-4.36992 z m 90.14518,4.02593 c 0,-0.0519 0.19665,-0.2485 0.437,-0.43699 0.39605,-0.31061 0.40488,-0.30177 0.0943,0.0943 -0.32621,0.41595 -0.53127,0.54823 -0.53127,0.34271 z m 60.18003,-2.24739 c 0,-0.0519 0.19664,-0.2485 0.43699,-0.43699 0.39605,-0.3106 0.40488,-0.30177 0.0943,0.0943 -0.32622,0.41596 -0.53127,0.54823 -0.53127,0.34271 z M 43.192765,259.27066 c 0,-0.34336 0.05668,-0.48382 0.12595,-0.31214 0.06927,0.17167 0.06927,0.4526 0,0.62427 -0.06927,0.17168 -0.12595,0.0312 -0.12595,-0.31213 z m 436.742155,0 c 0,-0.34336 0.0567,-0.48382 0.12595,-0.31214 0.0693,0.17167 0.0693,0.4526 0,0.62427 -0.0693,0.17168 -0.12595,0.0312 -0.12595,-0.31213 z m -225.52723,-0.0943 c 0,-0.0519 0.19665,-0.2485 0.43699,-0.437 0.39605,-0.3106 0.40489,-0.30177 0.0943,0.0943 -0.32621,0.41596 -0.53127,0.54824 -0.53127,0.34272 z m 60.18002,-2.24739 c 0,-0.0519 0.19665,-0.2485 0.43699,-0.43699 0.39606,-0.31061 0.40489,-0.30178 0.0943,0.0943 -0.32621,0.41595 -0.53127,0.54823 -0.53127,0.34271 z m -57.43321,-0.74913 c 0,-0.0519 0.19664,-0.2485 0.43699,-0.43699 0.39605,-0.31061 0.40488,-0.30178 0.0943,0.0943 -0.32622,0.41595 -0.53127,0.54823 -0.53127,0.34271 z m 60.18002,-2.24739 c 0,-0.0519 0.19664,-0.2485 0.43699,-0.43699 0.39605,-0.3106 0.40488,-0.30177 0.0943,0.0943 -0.32621,0.41595 -0.53127,0.54823 -0.53127,0.34271 z m -57.43322,-0.74913 c 0,-0.0518 0.19665,-0.2485 0.43699,-0.43699 0.39606,-0.3106 0.40489,-0.30177 0.0943,0.0943 -0.32621,0.41596 -0.53127,0.54823 -0.53127,0.34271 z m 60.18002,-2.24738 c 0,-0.0519 0.19665,-0.2485 0.437,-0.43699 0.39605,-0.31061 0.40488,-0.30178 0.0943,0.0943 -0.32621,0.41595 -0.53127,0.54823 -0.53127,0.34271 z m -57.43321,-0.74913 c 0,-0.0518 0.19664,-0.2485 0.43699,-0.43699 0.39605,-0.31061 0.40488,-0.30178 0.0943,0.0943 -0.32621,0.41595 -0.53127,0.54823 -0.53127,0.34271 z m 2.7468,-2.99652 c 0,-0.0519 0.19665,-0.2485 0.437,-0.43699 0.39605,-0.3106 0.40488,-0.30177 0.0943,0.0943 -0.32621,0.41595 -0.53127,0.54823 -0.53127,0.34271 z m 59.93032,-1.99767 c 0,-0.0519 0.19664,-0.2485 0.43699,-0.437 0.39605,-0.3106 0.40488,-0.30177 0.0943,0.0943 -0.32622,0.41596 -0.53127,0.54824 -0.53127,0.34272 z m -56.9338,-1.24855 c 0,-0.0519 0.19665,-0.2485 0.43699,-0.43699 0.39605,-0.31061 0.40489,-0.30178 0.0943,0.0943 -0.32621,0.41595 -0.53127,0.54823 -0.53127,0.34271 z m 59.6806,-1.74797 c 0,-0.0519 0.19665,-0.2485 0.43699,-0.43699 0.39606,-0.31061 0.40489,-0.30178 0.0943,0.0943 -0.32621,0.41595 -0.53127,0.54823 -0.53127,0.34271 z m -56.9338,-1.24855 c 0,-0.0519 0.19665,-0.2485 0.437,-0.43699 0.39605,-0.31061 0.40488,-0.30177 0.0943,0.0943 -0.32622,0.41595 -0.53128,0.54823 -0.53128,0.34271 z m 59.68061,-1.74796 c 0,-0.0519 0.19664,-0.2485 0.43699,-0.437 0.39605,-0.3106 0.40489,-0.30177 0.0943,0.0943 -0.32621,0.41596 -0.53127,0.54823 -0.53127,0.34272 z m -56.9338,-1.24855 c 0,-0.0519 0.19665,-0.2485 0.43699,-0.43699 0.39606,-0.31061 0.40489,-0.30178 0.0943,0.0943 -0.32621,0.41596 -0.53127,0.54824 -0.53127,0.34272 z m 59.6806,-1.74797 c 0,-0.0519 0.19665,-0.2485 0.437,-0.43699 0.39605,-0.31061 0.40488,-0.30178 0.0943,0.0943 -0.32621,0.41595 -0.53127,0.54823 -0.53127,0.34271 z m -56.93379,-1.24855 c 0,-0.0519 0.19664,-0.2485 0.43699,-0.43699 0.39605,-0.31061 0.40488,-0.30177 0.0943,0.0943 -0.32622,0.41595 -0.53127,0.54823 -0.53127,0.34271 z m 59.6806,-1.74797 c 0,-0.0519 0.19665,-0.2485 0.43699,-0.43699 0.39606,-0.3106 0.40489,-0.30177 0.0943,0.0943 -0.32621,0.41595 -0.53127,0.54823 -0.53127,0.34271 z m -56.9338,-1.24854 c 0,-0.0519 0.19665,-0.2485 0.43699,-0.437 0.39606,-0.3106 0.40489,-0.30177 0.0943,0.0943 -0.32621,0.41596 -0.53127,0.54824 -0.53127,0.34272 z m 59.68061,-1.74797 c 0,-0.0519 0.19664,-0.2485 0.43699,-0.43699 0.39605,-0.31061 0.40488,-0.30178 0.0943,0.0943 -0.32622,0.41595 -0.53127,0.54823 -0.53127,0.34271 z m -56.9338,-1.24855 c 0,-0.0519 0.19665,-0.2485 0.43699,-0.43699 0.39605,-0.31061 0.40489,-0.30178 0.0943,0.0943 -0.32621,0.41595 -0.53127,0.54823 -0.53127,0.34271 z m 59.6806,-1.74797 c 0,-0.0519 0.19665,-0.2485 0.43699,-0.43699 0.39606,-0.31061 0.40489,-0.30177 0.0943,0.0943 -0.32621,0.41595 -0.53127,0.54823 -0.53127,0.34271 z m -56.68409,-1.49826 c 0,-0.0519 0.19665,-0.2485 0.437,-0.43699 0.39605,-0.3106 0.40488,-0.30177 0.0943,0.0943 -0.32622,0.41596 -0.53128,0.54823 -0.53128,0.34271 z m 59.18119,-1.24854 c 0,-0.0519 0.19664,-0.2485 0.43699,-0.437 0.39605,-0.3106 0.40489,-0.30177 0.0943,0.0943 -0.32621,0.41596 -0.53127,0.54824 -0.53127,0.34272 z m -56.43438,-1.74797 c 0,-0.0519 0.19665,-0.2485 0.43699,-0.43699 0.39606,-0.31061 0.40489,-0.30178 0.0943,0.0943 -0.32621,0.41595 -0.53127,0.54823 -0.53127,0.34271 z m 59.18118,-1.24855 c 0,-0.0519 0.19665,-0.2485 0.437,-0.43699 0.39605,-0.31061 0.40488,-0.30178 0.0943,0.0943 -0.32622,0.41595 -0.53128,0.54823 -0.53128,0.34271 z m -56.43437,-1.74797 c 0,-0.0519 0.19664,-0.2485 0.43699,-0.43699 0.39605,-0.3106 0.40488,-0.30177 0.0943,0.0943 -0.32622,0.41595 -0.53127,0.54823 -0.53127,0.34271 z m 59.18118,-1.24854 c 0,-0.0519 0.19665,-0.2485 0.43699,-0.437 0.39606,-0.3106 0.40489,-0.30177 0.0943,0.0943 -0.32621,0.41596 -0.53127,0.54823 -0.53127,0.34272 z m -56.43438,-1.74797 c 0,-0.0519 0.19665,-0.2485 0.43699,-0.43699 0.39606,-0.31061 0.40489,-0.30178 0.0943,0.0943 -0.32621,0.41595 -0.53127,0.54823 -0.53127,0.34271 z m 59.18119,-1.24855 c 0,-0.0519 0.19664,-0.2485 0.43699,-0.43699 0.39605,-0.31061 0.40488,-0.30178 0.0943,0.0943 -0.32622,0.41595 -0.53127,0.54823 -0.53127,0.34271 z M 296.1092,213.7292 c 0,-0.0519 0.19664,-0.2485 0.43699,-0.43699 0.39605,-0.31061 0.40489,-0.30177 0.0943,0.0943 -0.32621,0.41595 -0.53127,0.54823 -0.53127,0.34271 z m 59.18118,-1.24855 c 0,-0.0519 0.19665,-0.2485 0.43699,-0.43699 0.39606,-0.3106 0.40489,-0.30177 0.0943,0.0943 -0.32621,0.41595 -0.53127,0.54823 -0.53127,0.34271 z M 298.856,210.73271 c 0,-0.0519 0.19665,-0.2485 0.437,-0.437 0.39605,-0.3106 0.40488,-0.30177 0.0943,0.0943 -0.32622,0.41596 -0.53128,0.54824 -0.53128,0.34272 z m 59.18119,-1.24855 c 0,-0.0519 0.19664,-0.2485 0.43699,-0.43699 0.39605,-0.31061 0.40489,-0.30178 0.0943,0.0943 -0.32621,0.41595 -0.53127,0.54823 -0.53127,0.34271 z m -56.18467,-1.99768 c 0,-0.0519 0.19665,-0.2485 0.43699,-0.43699 0.39606,-0.31061 0.40489,-0.30177 0.0943,0.0943 -0.32621,0.41595 -0.53127,0.54823 -0.53127,0.34271 z M 64.128947,207.23677 c 0,-0.0519 0.196646,-0.2485 0.436991,-0.43699 0.396054,-0.31061 0.404886,-0.30177 0.09428,0.0943 -0.326213,0.41595 -0.531271,0.54823 -0.531271,0.34271 z m 296.655043,-0.74913 c 0,-0.0519 0.19665,-0.2485 0.437,-0.43699 0.39605,-0.31061 0.40488,-0.30177 0.0943,0.0943 -0.32622,0.41595 -0.53128,0.54823 -0.53128,0.34271 z m 95.63026,-2.09068 -1.36487,-1.43583 1.43583,1.36488 c 0.78971,0.75068 1.43583,1.3968 1.43583,1.43583 0,0.18534 -0.23878,-0.031 -1.50679,-1.36488 z m -151.81492,0.093 c 0,-0.0519 0.19664,-0.2485 0.43699,-0.437 0.39605,-0.3106 0.40488,-0.30177 0.0943,0.0943 -0.32622,0.41596 -0.53127,0.54824 -0.53127,0.34272 z m 57.65107,-0.34272 c -0.31061,-0.39605 -0.30177,-0.40488 0.0943,-0.0943 0.24034,0.1885 0.43699,0.38514 0.43699,0.437 0,0.20552 -0.20506,0.0732 -0.53127,-0.34272 z m -54.90427,-2.6538 c 0,-0.0519 0.19665,-0.2485 0.43699,-0.43699 0.39606,-0.31061 0.40489,-0.30178 0.0943,0.0943 -0.32621,0.41595 -0.53127,0.54823 -0.53127,0.34271 z m 51.65804,-0.34271 c -0.3106,-0.39606 -0.30177,-0.40489 0.0943,-0.0943 0.24035,0.18849 0.437,0.38514 0.437,0.43699 0,0.20552 -0.20506,0.0732 -0.53128,-0.34271 z m -48.91123,-2.65381 c 0,-0.0519 0.19664,-0.2485 0.43699,-0.43699 0.39605,-0.3106 0.40489,-0.30177 0.0943,0.0943 -0.32621,0.41596 -0.53127,0.54823 -0.53127,0.34271 z m 45.66501,-0.34271 c -0.31061,-0.39605 -0.30177,-0.40488 0.0943,-0.0943 0.24034,0.18849 0.43699,0.38514 0.43699,0.43699 0,0.20552 -0.20506,0.0733 -0.53127,-0.34271 z m -42.91821,-2.6538 c 0,-0.0519 0.19665,-0.2485 0.437,-0.43699 0.39605,-0.31061 0.40488,-0.30178 0.0943,0.0943 -0.32622,0.41595 -0.53128,0.54823 -0.53128,0.34271 z m 39.42227,-0.59242 c -0.3106,-0.39606 -0.30177,-0.40489 0.0943,-0.0943 0.24035,0.18849 0.437,0.38514 0.437,0.43699 0,0.20552 -0.20506,0.0732 -0.53128,-0.34271 z m -36.67546,-2.4041 c 0,-0.0518 0.19665,-0.2485 0.43699,-0.43699 0.39606,-0.31061 0.40489,-0.30177 0.0943,0.0943 -0.32621,0.41595 -0.53127,0.54823 -0.53127,0.34271 z m 33.42924,-0.59242 c -0.31061,-0.39605 -0.30177,-0.40488 0.0943,-0.0943 0.24034,0.18849 0.43699,0.38514 0.43699,0.43699 0,0.20552 -0.20506,0.0732 -0.53127,-0.34271 z m -30.43272,-2.6538 c 0,-0.0519 0.19664,-0.2485 0.43699,-0.43699 0.39605,-0.31061 0.40488,-0.30178 0.0943,0.0943 -0.32622,0.41595 -0.53127,0.54823 -0.53127,0.34271 z m 27.18649,-0.34271 c -0.3106,-0.39606 -0.30177,-0.40489 0.0943,-0.0943 0.24035,0.18849 0.437,0.38513 0.437,0.43699 0,0.20552 -0.20506,0.0732 -0.53128,-0.34271 z m -24.43969,-2.65381 c 0,-0.0519 0.19665,-0.2485 0.43699,-0.43699 0.39606,-0.31061 0.40489,-0.30177 0.0943,0.0943 -0.32621,0.41595 -0.53127,0.54823 -0.53127,0.34271 z m 20.94376,-0.59242 c -0.31061,-0.39605 -0.30177,-0.40489 0.0943,-0.0943 0.24034,0.18849 0.43699,0.38514 0.43699,0.43699 0,0.20552 -0.20506,0.0732 -0.53127,-0.34271 z m -18.19695,-2.40409 c 0,-0.0519 0.19664,-0.2485 0.43699,-0.437 0.39605,-0.3106 0.40489,-0.30177 0.0943,0.0943 -0.32621,0.41596 -0.53127,0.54824 -0.53127,0.34272 z m 14.95072,-0.59243 c -0.3106,-0.39605 -0.30177,-0.40488 0.0943,-0.0943 0.24035,0.18849 0.437,0.38513 0.437,0.43699 0,0.20552 -0.20506,0.0732 -0.53128,-0.34272 z m -12.20392,-2.40409 c 0,-0.0519 0.19665,-0.2485 0.437,-0.43699 0.39605,-0.31061 0.40488,-0.30178 0.0943,0.0943 -0.32621,0.41595 -0.53127,0.54823 -0.53127,0.34271 z m 8.9577,-0.59242 c -0.31061,-0.39605 -0.30178,-0.40489 0.0943,-0.0943 0.24034,0.18849 0.43699,0.38514 0.43699,0.43699 0,0.20552 -0.20506,0.0732 -0.53127,-0.34271 z m -6.21089,-2.40409 c 0,-0.0519 0.19665,-0.2485 0.43699,-0.437 0.39605,-0.3106 0.40489,-0.30177 0.0943,0.0943 -0.32621,0.41596 -0.53127,0.54823 -0.53127,0.34272 z m 2.71495,-0.84214 c -0.3106,-0.39605 -0.30177,-0.40488 0.0943,-0.0943 0.24035,0.1885 0.43699,0.38514 0.43699,0.437 0,0.20552 -0.20505,0.0732 -0.53127,-0.34272 z m 105.67875,-10.69589 c 0.012,-0.2909 0.0711,-0.35007 0.15086,-0.15087 0.0721,0.18026 0.0633,0.39563 -0.0197,0.47861 -0.083,0.083 -0.142,-0.0645 -0.13115,-0.32774 z m -352.796461,-2.9757 c 0.0028,-0.54936 0.05391,-0.7447 0.113637,-0.43408 0.05973,0.31062 0.05746,0.76009 -0.005,0.99884 -0.0625,0.23874 -0.11137,-0.0154 -0.108598,-0.56476 z m -0.01429,-5.2439 c 0.0051,-0.41202 0.06105,-0.55035 0.124365,-0.30739 0.06331,0.24296 0.05915,0.58007 -0.0093,0.74913 -0.0684,0.16906 -0.120202,-0.0297 -0.115113,-0.44174 z m 352.810751,-2.51791 c 0.012,-0.29089 0.0711,-0.35006 0.15086,-0.15086 0.0721,0.18026 0.0633,0.39563 -0.0197,0.47861 -0.083,0.083 -0.142,-0.0645 -0.13115,-0.32775 z m -22.13473,-50.35811 -0.73342,-0.81155 0.81156,0.73342 c 0.75648,0.68365 0.92633,0.88969 0.73342,0.88969 -0.043,0 -0.40818,-0.3652 -0.81156,-0.81156 z m -308.99997,0.46757 c 0,-0.0519 0.19665,-0.2485 0.437,-0.43699 0.39605,-0.31061 0.40488,-0.30178 0.0943,0.0943 -0.32622,0.41595 -0.53128,0.54823 -0.53128,0.34271 z M 351.99734,83.054782 c 0.18026,-0.07213 0.39563,-0.06326 0.47861,0.01971 0.083,0.08298 -0.0645,0.141995 -0.32775,0.131152 -0.29089,-0.01198 -0.35007,-0.07115 -0.15086,-0.150866 z m -195.02323,-0.24971 c 0.18026,-0.07213 0.39563,-0.06326 0.47861,0.01971 0.083,0.08298 -0.0645,0.141995 -0.32774,0.131152 -0.2909,-0.01198 -0.35007,-0.07115 -0.15087,-0.150866 z m 11.48664,0 c 0.18026,-0.07213 0.39564,-0.06326 0.47861,0.01971 0.083,0.08298 -0.0645,0.141995 -0.32774,0.131152 -0.2909,-0.01198 -0.35007,-0.07115 -0.15087,-0.150866 z m 186.5331,0 c 0.18026,-0.07213 0.39564,-0.06326 0.47861,0.01971 0.083,0.08298 -0.0645,0.141995 -0.32774,0.131152 -0.2909,-0.01198 -0.35007,-0.07115 -0.15087,-0.150866 z M 203.46692,67.898795 c 0,-0.05185 0.19665,-0.2485 0.437,-0.436992 0.39605,-0.310607 0.40488,-0.301774 0.0943,0.09428 -0.32621,0.415953 -0.53127,0.548232 -0.53127,0.342713 z m 114.96757,-1.466406 -0.4757,-0.561847 0.56185,0.475694 c 0.528,0.447035 0.67552,0.647999 0.47569,0.647999 -0.0474,0 -0.30021,-0.252831 -0.56184,-0.561846 z M 209.70966,61.656054 c 0,-0.05185 0.19665,-0.2485 0.437,-0.436992 0.39605,-0.310606 0.40488,-0.301774 0.0943,0.09428 -0.32622,0.415954 -0.53128,0.548232 -0.53128,0.342713 z m 47.39801,-20.552491 c 0.18026,-0.07213 0.39564,-0.06326 0.47861,0.01971 0.083,0.08298 -0.0645,0.141995 -0.32774,0.131152 -0.2909,-0.01198 -0.35007,-0.07115 -0.15087,-0.150866 z m 4.22946,-0.244508 c 0.17168,-0.06927 0.4526,-0.06927 0.62428,0 0.17167,0.06927 0.0312,0.12595 -0.31214,0.12595 -0.34335,0 -0.48381,-0.05668 -0.31214,-0.12595 z"
         id="path45" /><path
         style="fill:#ffcc00;fill-opacity:1"
         d="m 257.8568,477.3463 c 0.18026,-0.0721 0.39564,-0.0633 0.47861,0.0197 0.083,0.083 -0.0645,0.142 -0.32774,0.13115 -0.2909,-0.012 -0.35007,-0.0711 -0.15087,-0.15086 z m -43.68421,-16.74725 c -0.31061,-0.39605 -0.30178,-0.40489 0.0943,-0.0943 0.24034,0.18849 0.43699,0.38514 0.43699,0.43699 0,0.20552 -0.20506,0.0732 -0.53127,-0.34271 z m 96.66948,-1.40526 c 0,-0.0519 0.19664,-0.2485 0.43699,-0.43699 0.39605,-0.3106 0.40488,-0.30177 0.0943,0.0943 -0.32622,0.41596 -0.53127,0.54823 -0.53127,0.34271 z m -99.28331,-0.71727 -0.47569,-0.56185 0.56184,0.47569 c 0.528,0.44704 0.67553,0.648 0.4757,0.648 -0.0474,0 -0.30022,-0.25283 -0.56185,-0.56184 z m 101.28098,-1.06127 c 0.32257,-0.34335 0.64266,-0.62427 0.71133,-0.62427 0.0687,0 -0.13906,0.28092 -0.46162,0.62427 -0.32256,0.34335 -0.64266,0.62428 -0.71133,0.62428 -0.0687,0 0.13906,-0.28093 0.46162,-0.62428 z m -103.27064,-0.6867 -0.73342,-0.81156 0.81156,0.73342 c 0.75648,0.68365 0.92633,0.8897 0.73342,0.8897 -0.043,0 -0.40818,-0.3652 -0.81156,-0.81156 z m 106.89143,-2.68438 c 0.95402,-0.96138 1.79076,-1.74797 1.85943,-1.74797 0.0687,0 -0.6557,0.78659 -1.60972,1.74797 -0.95401,0.96138 -1.79075,1.74797 -1.85942,1.74797 -0.0687,0 0.6557,-0.78659 1.60971,-1.74797 z m -112.7628,-3.1838 -0.60537,-0.6867 0.6867,0.60538 c 0.64183,0.56581 0.80122,0.76802 0.60538,0.76802 -0.0447,0 -0.35375,-0.30901 -0.68671,-0.6867 z m 116.13388,-0.43699 c 0.32257,-0.34335 0.64266,-0.62427 0.71133,-0.62427 0.0687,0 -0.13906,0.28092 -0.46162,0.62427 -0.32256,0.34335 -0.64266,0.62428 -0.71133,0.62428 -0.0687,0 0.13906,-0.28093 0.46162,-0.62428 z m -117.8948,-1.56068 c -0.3106,-0.39606 -0.30177,-0.40489 0.0943,-0.0943 0.41596,0.32621 0.54824,0.53127 0.34272,0.53127 -0.0519,0 -0.2485,-0.19665 -0.437,-0.43699 z m 119.51792,-0.31214 c 0.24858,-0.27468 0.50815,-0.49942 0.57682,-0.49942 0.0687,0 -0.0785,0.22474 -0.32711,0.49942 -0.24859,0.27468 -0.50816,0.49942 -0.57683,0.49942 -0.0687,0 0.0785,-0.22474 0.32712,-0.49942 z m -120.76646,-1.18612 c -0.31061,-0.39605 -0.30178,-0.40489 0.0943,-0.0943 0.41596,0.32621 0.54824,0.53127 0.34272,0.53127 -0.0519,0 -0.2485,-0.19665 -0.43699,-0.43699 z m 121.64044,0.093 c 0,-0.0519 0.19665,-0.2485 0.43699,-0.43699 0.39606,-0.31061 0.40489,-0.30177 0.0943,0.0943 -0.32621,0.41595 -0.53127,0.54823 -0.53127,0.34271 z m 33.91369,-11.31323 c 0.18026,-0.0721 0.39563,-0.0633 0.47861,0.0197 0.083,0.083 -0.0645,0.142 -0.32774,0.13115 -0.2909,-0.012 -0.35007,-0.0711 -0.15087,-0.15086 z m -2.99652,-0.24971 c 0.18026,-0.0721 0.39564,-0.0633 0.47861,0.0197 0.083,0.083 -0.0645,0.142 -0.32774,0.13115 -0.2909,-0.012 -0.35007,-0.0711 -0.15087,-0.15086 z m -194.03999,-0.24451 c 0.17168,-0.0693 0.4526,-0.0693 0.62427,0 0.17168,0.0693 0.0312,0.12595 -0.31213,0.12595 -0.34335,0 -0.48381,-0.0567 -0.31214,-0.12595 z m 6.74216,0 c 0.17168,-0.0693 0.4526,-0.0693 0.62427,0 0.17168,0.0693 0.0312,0.12595 -0.31213,0.12595 -0.34335,0 -0.48381,-0.0567 -0.31214,-0.12595 z M 408.22882,420.4888 c 0,-0.0519 0.19665,-0.2485 0.437,-0.43699 0.39605,-0.31061 0.40488,-0.30178 0.0943,0.0943 -0.32622,0.41595 -0.53128,0.54823 -0.53128,0.34271 z m 1.24855,-0.99884 c 0,-0.0519 0.19665,-0.2485 0.43699,-0.43699 0.39606,-0.31061 0.40489,-0.30177 0.0943,0.0943 -0.32621,0.41595 -0.53127,0.54823 -0.53127,0.34271 z m -296.18748,-0.59242 c -0.3106,-0.39605 -0.30177,-0.40489 0.0943,-0.0943 0.24035,0.18849 0.43699,0.38514 0.43699,0.43699 0,0.20552 -0.20505,0.0732 -0.53127,-0.34271 z m 297.8106,-0.81156 c 0.24858,-0.27468 0.50815,-0.49942 0.57682,-0.49942 0.0687,0 -0.0785,0.22474 -0.32711,0.49942 -0.24859,0.27468 -0.50816,0.49942 -0.57683,0.49942 -0.0687,0 0.0785,-0.22474 0.32712,-0.49942 z M 110.7928,416.89986 c -0.31061,-0.39605 -0.30178,-0.40488 0.0943,-0.0943 0.24034,0.1885 0.43699,0.38514 0.43699,0.437 0,0.20552 -0.20506,0.0732 -0.53127,-0.34272 z m 301.68109,0.10915 c 0,-0.043 0.3652,-0.40818 0.81156,-0.81156 l 0.81155,-0.73342 -0.73342,0.81156 c -0.68365,0.75648 -0.88969,0.92633 -0.88969,0.73342 z m -303.54579,-1.73226 -0.47569,-0.56185 0.56184,0.4757 c 0.528,0.44703 0.67553,0.648 0.4757,0.648 -0.0474,0 -0.30022,-0.25283 -0.56185,-0.56185 z m -3.61596,-3.62079 -0.60538,-0.6867 0.6867,0.60537 c 0.64183,0.56582 0.80122,0.76803 0.60538,0.76803 -0.0447,0 -0.35375,-0.30901 -0.6867,-0.6867 z m 313.15478,-0.6867 c 0.32256,-0.34335 0.64266,-0.62428 0.71133,-0.62428 0.0687,0 -0.13906,0.28093 -0.46162,0.62428 -0.32256,0.34335 -0.64266,0.62427 -0.71133,0.62427 -0.0687,0 0.13906,-0.28092 0.46162,-0.62427 z m -314.66599,-1.06127 c -0.31061,-0.39605 -0.30178,-0.40488 0.0943,-0.0943 0.24034,0.1885 0.43699,0.38514 0.43699,0.437 0,0.20552 -0.20506,0.0732 -0.53127,-0.34272 z m 316.53881,-1.06126 c 0.24858,-0.27468 0.50816,-0.49942 0.57683,-0.49942 0.0687,0 -0.0785,0.22474 -0.32712,0.49942 -0.24858,0.27468 -0.50815,0.49942 -0.57682,0.49942 -0.0687,0 0.0785,-0.22474 0.32711,-0.49942 z M 101.80325,407.4109 c -0.31061,-0.39606 -0.30177,-0.40489 0.0943,-0.0943 0.41595,0.32621 0.54823,0.53127 0.34271,0.53127 -0.0519,0 -0.2485,-0.19665 -0.43699,-0.43699 z m 319.41048,0.34271 c 0,-0.0519 0.19664,-0.2485 0.43699,-0.43699 0.39605,-0.31061 0.40488,-0.30178 0.0943,0.0943 -0.32622,0.41595 -0.53127,0.54823 -0.53127,0.34271 z M 85.37398,364.50246 c 0.01198,-0.2909 0.07115,-0.35007 0.150866,-0.15087 0.07213,0.18026 0.06326,0.39564 -0.01971,0.47861 -0.08298,0.083 -0.141995,-0.0645 -0.131152,-0.32774 z m -0.183821,-5.97222 c 9.07e-4,-1.09873 0.04481,-1.51714 0.09756,-0.92982 0.05275,0.58733 0.05201,1.48629 -0.0016,1.99768 -0.05366,0.5114 -0.09682,0.0309 -0.09591,-1.06786 z M 438.4634,354.01465 c 0.012,-0.29089 0.0712,-0.35006 0.15087,-0.15086 0.0721,0.18026 0.0633,0.39563 -0.0197,0.47861 -0.083,0.083 -0.142,-0.0645 -0.13116,-0.32775 z M 85.37398,352.01698 c 0.01198,-0.2909 0.07115,-0.35007 0.150866,-0.15087 0.07213,0.18026 0.06326,0.39563 -0.01971,0.47861 -0.08298,0.083 -0.141995,-0.0645 -0.131152,-0.32774 z m 145.81071,-3.92783 c 0,-0.043 0.3652,-0.40818 0.81156,-0.81156 l 0.81156,-0.73342 -0.73342,0.81156 c -0.68365,0.75648 -0.8897,0.92633 -0.8897,0.73342 z m 2.74681,-2.99652 c 0,-0.043 0.3652,-0.40817 0.81156,-0.81155 l 0.81155,-0.73342 -0.73342,0.81155 c -0.68365,0.75649 -0.88969,0.92634 -0.88969,0.73342 z m 2.74681,-2.99651 c 0,-0.043 0.3652,-0.40818 0.81155,-0.81156 l 0.81156,-0.73342 -0.73342,0.81156 c -0.68365,0.75648 -0.88969,0.92633 -0.88969,0.73342 z m 2.7468,-2.99652 c 0,-0.043 0.3652,-0.40817 0.81156,-0.81155 l 0.81155,-0.73342 -0.73342,0.81155 c -0.68365,0.75649 -0.88969,0.92634 -0.88969,0.73342 z m 3.24623,-3.54265 c 0.4659,-0.48069 0.90328,-0.87398 0.97195,-0.87398 0.0687,0 -0.25634,0.39329 -0.72224,0.87398 -0.46591,0.48069 -0.90329,0.87398 -0.97196,0.87398 -0.0687,0 0.25634,-0.39329 0.72225,-0.87398 z m 2.7468,-2.99652 c 0.46591,-0.48069 0.90329,-0.87398 0.97196,-0.87398 0.0687,0 -0.25634,0.39329 -0.72225,0.87398 -0.4659,0.48069 -0.90328,0.87399 -0.97195,0.87399 -0.0687,0 0.25634,-0.3933 0.72224,-0.87399 z m 2.74681,-2.99651 c 0.4659,-0.48069 0.90328,-0.87399 0.97195,-0.87399 0.0687,0 -0.25634,0.3933 -0.72224,0.87399 -0.46591,0.48069 -0.90329,0.87398 -0.97196,0.87398 -0.0687,0 0.25634,-0.39329 0.72225,-0.87398 z m 1.99768,-2.20067 c 0,-0.043 0.3652,-0.40818 0.81155,-0.81156 l 0.81156,-0.73342 -0.73342,0.81156 c -0.68365,0.75648 -0.88969,0.92634 -0.88969,0.73342 z m 2.7468,-2.99652 c 0,-0.043 0.3652,-0.40817 0.81156,-0.81155 l 0.81155,-0.73342 -0.73342,0.81155 c -0.68365,0.75649 -0.88969,0.92634 -0.88969,0.73342 z m 2.74681,-2.99651 c 0,-0.043 0.3652,-0.40818 0.81155,-0.81156 l 0.81156,-0.73342 -0.73342,0.81156 c -0.68365,0.75648 -0.88969,0.92633 -0.88969,0.73342 z m 193.77467,-1.01498 c 0,-0.0519 0.19665,-0.2485 0.437,-0.437 0.39605,-0.3106 0.40488,-0.30177 0.0943,0.0943 -0.32622,0.41596 -0.53128,0.54824 -0.53128,0.34272 z M 72.587222,319.2634 c -0.310606,-0.39606 -0.301774,-0.40489 0.09428,-0.0943 0.415953,0.32621 0.548232,0.53127 0.342712,0.53127 -0.05185,0 -0.2485,-0.19665 -0.436992,-0.43699 z m 378.341948,-0.15671 c 0,-0.0519 0.19665,-0.2485 0.43699,-0.43699 0.39606,-0.31061 0.40489,-0.30178 0.0943,0.0943 -0.32621,0.41595 -0.53127,0.54823 -0.53127,0.34271 z m -379.956934,-1.2167 -0.475694,-0.56184 0.561847,0.47569 c 0.527997,0.44703 0.675525,0.648 0.475694,0.648 -0.04738,0 -0.300215,-0.25283 -0.561847,-0.56185 z m 187.430804,0.48371 c 0,-0.043 0.3652,-0.40817 0.81156,-0.81155 l 0.81156,-0.73342 -0.73342,0.81155 c -0.68365,0.75649 -0.8897,0.92634 -0.8897,0.73342 z m 194.77352,-1.29526 c 0.32256,-0.34335 0.64266,-0.62428 0.71133,-0.62428 0.0687,0 -0.13906,0.28093 -0.46162,0.62428 -0.32256,0.34335 -0.64266,0.62427 -0.71133,0.62427 -0.0687,0 0.13906,-0.28092 0.46162,-0.62427 z m -386.181159,-2.93409 -2.24218,-2.30982 2.309814,2.24218 c 1.270398,1.2332 2.309814,2.27262 2.309814,2.30982 0,0.1813 -0.294961,-0.0969 -2.377448,-2.24218 z m 194.154449,1.23284 c 0,-0.043 0.3652,-0.40818 0.81156,-0.81156 l 0.81155,-0.73342 -0.73342,0.81156 c -0.68365,0.75648 -0.88969,0.92633 -0.88969,0.73342 z m 3.24622,-3.54266 c 0.46591,-0.48069 0.90329,-0.87398 0.97196,-0.87398 0.0687,0 -0.25634,0.39329 -0.72225,0.87398 -0.4659,0.48069 -0.90328,0.87399 -0.97195,0.87399 -0.0687,0 0.25634,-0.3933 0.72224,-0.87399 z m 194.02439,0.0467 c 0,-0.043 0.3652,-0.40817 0.81156,-0.81155 l 0.81155,-0.73342 -0.73342,0.81155 c -0.68365,0.75649 -0.88969,0.92634 -0.88969,0.73342 z M 63.098256,310.02414 c -0.310606,-0.39605 -0.301774,-0.40489 0.09428,-0.0943 0.240346,0.18849 0.436992,0.38514 0.436992,0.43699 0,0.20552 -0.205058,0.0732 -0.531271,-0.34271 z m 204.044624,-1.18612 c 0.4659,-0.48069 0.90328,-0.87399 0.97195,-0.87399 0.0687,0 -0.25634,0.3933 -0.72224,0.87399 -0.4659,0.48069 -0.90328,0.87398 -0.97195,0.87398 -0.0687,0 0.25634,-0.39329 0.72224,-0.87398 z m 193.64982,0.37456 c 0.24859,-0.27468 0.50816,-0.49942 0.57683,-0.49942 0.0687,0 -0.0785,0.22474 -0.32712,0.49942 -0.24858,0.27468 -0.50815,0.49942 -0.57682,0.49942 -0.0687,0 0.0785,-0.22474 0.32711,-0.49942 z M 61.599998,308.27617 c -0.310606,-0.39605 -0.301774,-0.40488 0.09428,-0.0943 0.240345,0.18849 0.436991,0.38514 0.436991,0.43699 0,0.20552 -0.205057,0.0732 -0.531271,-0.34271 z m 401.065532,-1.40525 c 0,-0.0519 0.19664,-0.2485 0.43699,-0.437 0.39605,-0.3106 0.40488,-0.30177 0.0943,0.0943 -0.32622,0.41596 -0.53127,0.54824 -0.53127,0.34272 z M 269.88969,305.8415 c 0.4659,-0.48069 0.90328,-0.87398 0.97195,-0.87398 0.0687,0 -0.25634,0.39329 -0.72224,0.87398 -0.46591,0.48069 -0.90329,0.87399 -0.97196,0.87399 -0.0687,0 0.25634,-0.3933 0.72225,-0.87399 z m 1.99767,-2.20067 c 0,-0.043 0.3652,-0.40817 0.81156,-0.81155 l 0.81156,-0.73342 -0.73342,0.81155 c -0.68365,0.75649 -0.8897,0.92634 -0.8897,0.73342 z m 2.74681,-2.99651 c 0,-0.043 0.3652,-0.40818 0.81156,-0.81156 l 0.81155,-0.73342 -0.73342,0.81156 c -0.68365,0.75648 -0.88969,0.92633 -0.88969,0.73342 z m 2.74681,-2.99652 c 0,-0.043 0.3652,-0.40817 0.81155,-0.81155 l 0.81156,-0.73342 -0.73342,0.81155 c -0.68365,0.75649 -0.88969,0.92634 -0.88969,0.73342 z m 2.7468,-2.99651 c 0,-0.043 0.3652,-0.40818 0.81156,-0.81156 l 0.81155,-0.73342 -0.73342,0.81156 c -0.68365,0.75648 -0.88969,0.92633 -0.88969,0.73342 z m 3.24623,-3.54266 c 0.4659,-0.48069 0.90328,-0.87398 0.97195,-0.87398 0.0687,0 -0.25634,0.39329 -0.72224,0.87398 -0.46591,0.48069 -0.90329,0.87399 -0.97196,0.87399 -0.0687,0 0.25634,-0.3933 0.72225,-0.87399 z m 2.7468,-2.99651 c 0.46591,-0.48069 0.90329,-0.87399 0.97196,-0.87399 0.0687,0 -0.25634,0.3933 -0.72225,0.87399 -0.4659,0.48069 -0.90328,0.87398 -0.97195,0.87398 -0.0687,0 0.25634,-0.39329 0.72224,-0.87398 z m -81.28097,-25.40796 -23.97164,-24.03455 24.03455,23.97164 c 13.21901,13.1844 24.03456,23.99995 24.03456,24.03455 0,0.0346 -0.0283,0.0629 -0.0629,0.0629 -0.0346,0 -10.85015,-10.81555 -24.03455,-24.03456 z m 84.02778,22.41144 c 0.4659,-0.48069 0.90328,-0.87398 0.97195,-0.87398 0.0687,0 -0.25634,0.39329 -0.72224,0.87398 -0.46591,0.48069 -0.90328,0.87399 -0.97195,0.87399 -0.0687,0 0.25633,-0.3933 0.72224,-0.87399 z m -58.43206,0.0467 c 0,-0.043 0.3652,-0.40817 0.81156,-0.81156 l 0.81156,-0.73342 -0.73342,0.81156 c -0.68365,0.75649 -0.8897,0.92634 -0.8897,0.73342 z m 60.42974,-2.24739 c 0,-0.043 0.3652,-0.40817 0.81155,-0.81155 l 0.81156,-0.73342 -0.73342,0.81155 c -0.68365,0.75649 -0.88969,0.92634 -0.88969,0.73342 z m -56.9338,-1.54497 c 0.4659,-0.48069 0.90328,-0.87399 0.97195,-0.87399 0.0687,0 -0.25634,0.3933 -0.72224,0.87399 -0.46591,0.48069 -0.90328,0.87398 -0.97195,0.87398 -0.0687,0 0.25633,-0.39329 0.72224,-0.87398 z m 59.6806,-1.45154 c 0,-0.043 0.3652,-0.40818 0.81156,-0.81156 l 0.81155,-0.73342 -0.73342,0.81156 c -0.68365,0.75648 -0.88969,0.92633 -0.88969,0.73342 z m -56.93379,-1.54498 c 0.4659,-0.48069 0.90328,-0.87398 0.97195,-0.87398 0.0687,0 -0.25634,0.39329 -0.72225,0.87398 -0.4659,0.48069 -0.90328,0.87399 -0.97195,0.87399 -0.0687,0 0.25634,-0.3933 0.72225,-0.87399 z m 59.6806,-1.45154 c 0,-0.043 0.3652,-0.40817 0.81155,-0.81155 l 0.81156,-0.73342 -0.73342,0.81155 c -0.68365,0.75649 -0.88969,0.92634 -0.88969,0.73342 z m -56.9338,-1.54497 c 0.46591,-0.48069 0.90328,-0.87399 0.97195,-0.87399 0.0687,0 -0.25634,0.3933 -0.72224,0.87399 -0.4659,0.48069 -0.90328,0.87398 -0.97195,0.87398 -0.0687,0 0.25634,-0.39329 0.72224,-0.87398 z m 59.6806,-1.45154 c 0,-0.043 0.3652,-0.40818 0.81156,-0.81156 l 0.81156,-0.73342 -0.73342,0.81156 c -0.68365,0.75648 -0.8897,0.92633 -0.8897,0.73342 z m -56.93379,-1.54498 c 0.4659,-0.48069 0.90328,-0.87398 0.97195,-0.87398 0.0687,0 -0.25634,0.39329 -0.72224,0.87398 -0.46591,0.48069 -0.90329,0.87398 -0.97196,0.87398 -0.0687,0 0.25634,-0.39329 0.72225,-0.87398 z m 59.6806,-1.45154 c 0,-0.043 0.3652,-0.40817 0.81156,-0.81155 l 0.81155,-0.73342 -0.73342,0.81155 c -0.68365,0.75649 -0.88969,0.92634 -0.88969,0.73342 z m -57.43322,-0.99884 c 0,-0.043 0.3652,-0.40817 0.81156,-0.81155 l 0.81156,-0.73342 -0.73342,0.81155 c -0.68365,0.75649 -0.8897,0.92634 -0.8897,0.73342 z m -90.51974,-4.16692 c 1.78146,-1.78543 3.2952,-3.24623 3.36387,-3.24623 0.0687,0 -1.3327,1.4608 -3.11416,3.24623 -1.78146,1.78542 -3.2952,3.24622 -3.36387,3.24622 -0.0687,0 1.3327,-1.4608 3.11416,-3.24622 z m 151.19919,1.62311 c 0.4659,-0.48069 0.90328,-0.87399 0.97195,-0.87399 0.0687,0 -0.25634,0.3933 -0.72225,0.87399 -0.4659,0.48069 -0.90328,0.87398 -0.97195,0.87398 -0.0687,0 0.25634,-0.39329 0.72225,-0.87398 z m -57.93264,-0.4527 c 0,-0.043 0.3652,-0.40818 0.81156,-0.81156 l 0.81155,-0.73342 -0.73342,0.81156 c -0.68365,0.75648 -0.88969,0.92633 -0.88969,0.73342 z m 60.67944,-2.54382 c 0.46591,-0.48069 0.90328,-0.87398 0.97195,-0.87398 0.0687,0 -0.25633,0.39329 -0.72224,0.87398 -0.4659,0.48069 -0.90328,0.87399 -0.97195,0.87399 -0.0687,0 0.25634,-0.3933 0.72224,-0.87399 z m -57.18351,-1.24855 c 0.46591,-0.48069 0.90329,-0.87398 0.97196,-0.87398 0.0687,0 -0.25634,0.39329 -0.72225,0.87398 -0.4659,0.4807 -0.90328,0.87399 -0.97195,0.87399 -0.0687,0 0.25634,-0.39329 0.72224,-0.87399 z m 229.00345,-0.27051 c 0.012,-0.2909 0.0712,-0.35007 0.15087,-0.15087 0.0721,0.18026 0.0633,0.39563 -0.0197,0.47861 -0.083,0.083 -0.142,-0.0645 -0.13116,-0.32774 z m -169.07313,-1.47745 c 0.4659,-0.48069 0.90328,-0.87399 0.97195,-0.87399 0.0687,0 -0.25634,0.3933 -0.72224,0.87399 -0.46591,0.48069 -0.90329,0.87398 -0.97196,0.87398 -0.0687,0 0.25634,-0.39329 0.72225,-0.87398 z m -57.18351,-1.24855 c 0.4659,-0.48069 0.90328,-0.87398 0.97195,-0.87398 0.0687,0 -0.25634,0.39329 -0.72224,0.87398 -0.4659,0.48069 -0.90328,0.87398 -0.97195,0.87398 -0.0687,0 0.25634,-0.39329 0.72224,-0.87398 z m 59.18118,-0.95212 c 0,-0.043 0.3652,-0.40818 0.81156,-0.81156 l 0.81156,-0.73342 -0.73342,0.81156 c -0.68365,0.75648 -0.8897,0.92633 -0.8897,0.73342 z m -56.43437,-2.0444 c 0.4659,-0.48069 0.90328,-0.87398 0.97195,-0.87398 0.0687,0 -0.25634,0.39329 -0.72224,0.87398 -0.46591,0.48069 -0.90329,0.87399 -0.97196,0.87399 -0.0687,0 0.25634,-0.3933 0.72225,-0.87399 z m 59.18118,-0.95212 c 0,-0.043 0.3652,-0.40817 0.81156,-0.81155 l 0.81155,-0.73342 -0.73342,0.81155 c -0.68365,0.75649 -0.88969,0.92634 -0.88969,0.73342 z M 43.422761,255.62906 c 0.01198,-0.2909 0.07115,-0.35007 0.150866,-0.15087 0.07213,0.18026 0.06326,0.39563 -0.01971,0.47861 -0.08298,0.083 -0.141995,-0.0645 -0.131152,-0.32774 z m 436.242729,0 c 0.012,-0.2909 0.0712,-0.35007 0.15087,-0.15087 0.0721,0.18026 0.0633,0.39563 -0.0197,0.47861 -0.083,0.083 -0.142,-0.0645 -0.13116,-0.32774 z m -220.76303,-1.47745 c 0.46591,-0.48069 0.90329,-0.87399 0.97196,-0.87399 0.0687,0 -0.25634,0.3933 -0.72225,0.87399 -0.4659,0.48069 -0.90328,0.87398 -0.97195,0.87398 -0.0687,0 0.25634,-0.39329 0.72224,-0.87398 z m 59.18119,-0.95212 c 0,-0.043 0.3652,-0.40818 0.81155,-0.81156 l 0.81156,-0.73342 -0.73342,0.81156 c -0.68365,0.75648 -0.88969,0.92633 -0.88969,0.73342 z m -56.9338,-1.49826 c 0,-0.043 0.3652,-0.40818 0.81156,-0.81156 l 0.81155,-0.73342 -0.73342,0.81156 c -0.68365,0.75648 -0.88969,0.92634 -0.88969,0.73342 z m 59.6806,-1.49826 c 0,-0.043 0.3652,-0.40817 0.81156,-0.81155 l 0.81155,-0.73342 -0.73341,0.81155 c -0.68366,0.75649 -0.8897,0.92634 -0.8897,0.73342 z m -56.93379,-1.49826 c 0,-0.043 0.3652,-0.40817 0.81155,-0.81155 l 0.81156,-0.73342 -0.73342,0.81155 c -0.68365,0.75649 -0.88969,0.92634 -0.88969,0.73342 z m -87.77294,-5.41547 c 2.46926,-2.47213 4.54575,-4.49477 4.61442,-4.49477 0.0687,0 -1.89545,2.02264 -4.36471,4.49477 -2.46927,2.47212 -4.54576,4.49477 -4.61443,4.49477 -0.0687,0 1.89545,-2.02265 4.36472,-4.49477 z m 147.95296,3.37108 c 0.4659,-0.48069 0.90328,-0.87399 0.97195,-0.87399 0.0687,0 -0.25634,0.3933 -0.72224,0.87399 -0.46591,0.48069 -0.90329,0.87398 -0.97196,0.87398 -0.0687,0 0.25634,-0.39329 0.72225,-0.87398 z m -56.68409,-1.74797 c 0.4659,-0.48069 0.90328,-0.87398 0.97195,-0.87398 0.0687,0 -0.25634,0.39329 -0.72224,0.87398 -0.4659,0.48069 -0.90328,0.87398 -0.97195,0.87398 -0.0687,0 0.25634,-0.39329 0.72224,-0.87398 z m 59.43089,-1.24855 c 0.46591,-0.48069 0.90329,-0.87398 0.97196,-0.87398 0.0687,0 -0.25634,0.39329 -0.72225,0.87398 -0.4659,0.48069 -0.90328,0.87399 -0.97195,0.87399 -0.0687,0 0.25634,-0.3933 0.72224,-0.87399 z m -56.68408,-1.74796 c 0.4659,-0.4807 0.90328,-0.87399 0.97195,-0.87399 0.0687,0 -0.25634,0.39329 -0.72224,0.87399 -0.46591,0.48069 -0.90329,0.87398 -0.97196,0.87398 -0.0687,0 0.25634,-0.39329 0.72225,-0.87398 z m 59.43089,-1.24855 c 0.4659,-0.48069 0.90328,-0.87399 0.97195,-0.87399 0.0687,0 -0.25634,0.3933 -0.72224,0.87399 -0.4659,0.48069 -0.90328,0.87398 -0.97195,0.87398 -0.0687,0 0.25634,-0.39329 0.72224,-0.87398 z m -56.68409,-1.74797 c 0.46591,-0.48069 0.90329,-0.87398 0.97196,-0.87398 0.0687,0 -0.25634,0.39329 -0.72225,0.87398 -0.4659,0.48069 -0.90328,0.87398 -0.97195,0.87398 -0.0687,0 0.25634,-0.39329 0.72224,-0.87398 z m 58.68177,-0.4527 c 0,-0.043 0.3652,-0.40818 0.81155,-0.81156 l 0.81156,-0.73342 -0.73342,0.81156 c -0.68365,0.75648 -0.88969,0.92633 -0.88969,0.73342 z m -55.93496,-2.54382 c 0.4659,-0.48069 0.90328,-0.87398 0.97195,-0.87398 0.0687,0 -0.25634,0.39329 -0.72224,0.87398 -0.46591,0.4807 -0.90329,0.87399 -0.97196,0.87399 -0.0687,0 0.25634,-0.39329 0.72225,-0.87399 z m 58.68176,-0.4527 c 0,-0.043 0.3652,-0.40817 0.81156,-0.81155 l 0.81156,-0.73342 -0.73342,0.81155 c -0.68365,0.75649 -0.8897,0.92634 -0.8897,0.73342 z m -56.43438,-1.99767 c 0,-0.043 0.36521,-0.40818 0.81156,-0.81156 l 0.81156,-0.73342 -0.73342,0.81156 c -0.68365,0.75648 -0.8897,0.92633 -0.8897,0.73342 z m 59.18119,-0.99884 c 0,-0.043 0.3652,-0.40818 0.81156,-0.81156 l 0.81155,-0.73342 -0.73342,0.81156 c -0.68365,0.75648 -0.88969,0.92633 -0.88969,0.73342 z m -56.43438,-1.99768 c 0,-0.043 0.3652,-0.40817 0.81156,-0.81156 l 0.81155,-0.73342 -0.73342,0.81156 c -0.68365,0.75648 -0.88969,0.92634 -0.88969,0.73342 z m 59.18118,-0.99884 c 0,-0.043 0.36521,-0.40817 0.81156,-0.81155 l 0.81156,-0.73342 -0.73342,0.81155 c -0.68365,0.75649 -0.8897,0.92634 -0.8897,0.73342 z m -55.68524,-2.79352 c 0.4659,-0.48069 0.90328,-0.87399 0.97195,-0.87399 0.0687,0 -0.25634,0.3933 -0.72224,0.87399 -0.46591,0.48069 -0.90329,0.87398 -0.97196,0.87398 -0.0687,0 0.25634,-0.39329 0.72225,-0.87398 z m 58.43205,-0.20299 c 0,-0.043 0.3652,-0.40818 0.81156,-0.81156 l 0.81155,-0.73342 -0.73342,0.81156 c -0.68365,0.75648 -0.88969,0.92633 -0.88969,0.73342 z m -55.68525,-2.79353 c 0.46591,-0.48069 0.90328,-0.87398 0.97196,-0.87398 0.0687,0 -0.25634,0.39329 -0.72225,0.87398 -0.4659,0.48069 -0.90328,0.87399 -0.97195,0.87399 -0.0687,0 0.25634,-0.3933 0.72224,-0.87399 z m 58.93148,-0.74913 c 0.4659,-0.48069 0.90328,-0.87398 0.97195,-0.87398 0.0687,0 -0.25634,0.39329 -0.72224,0.87398 -0.46591,0.48069 -0.90329,0.87399 -0.97196,0.87399 -0.0687,0 0.25634,-0.3933 0.72225,-0.87399 z m -56.18467,-2.24738 c 0.4659,-0.48069 0.90328,-0.87399 0.97195,-0.87399 0.0687,0 -0.25634,0.3933 -0.72224,0.87399 -0.46591,0.48069 -0.90329,0.87398 -0.97196,0.87398 -0.0687,0 0.25634,-0.39329 0.72225,-0.87398 z m 58.93147,-0.74913 c 0.46591,-0.48069 0.90328,-0.87399 0.97196,-0.87399 0.0687,0 -0.25634,0.3933 -0.72225,0.87399 -0.4659,0.48069 -0.90328,0.87398 -0.97195,0.87398 -0.0687,0 0.25634,-0.39329 0.72224,-0.87398 z M 292.36355,217.694 c 0.46591,-0.48069 0.90329,-0.87398 0.97196,-0.87398 0.0687,0 -0.25634,0.39329 -0.72225,0.87398 -0.4659,0.48069 -0.90328,0.87398 -0.97195,0.87398 -0.0687,0 0.25634,-0.39329 0.72224,-0.87398 z m 58.93148,-0.74913 c 0.4659,-0.48069 0.90328,-0.87398 0.97195,-0.87398 0.0687,0 -0.25634,0.39329 -0.72224,0.87398 -0.46591,0.48069 -0.90329,0.87399 -0.97196,0.87399 -0.0687,0 0.25634,-0.3933 0.72225,-0.87399 z m -56.68409,-1.70125 c 0,-0.043 0.3652,-0.40817 0.81156,-0.81155 l 0.81155,-0.73342 -0.73342,0.81155 c -0.68365,0.75649 -0.88969,0.92634 -0.88969,0.73342 z m 58.68177,-0.49942 c 0,-0.043 0.3652,-0.40817 0.81155,-0.81155 l 0.81156,-0.73342 -0.73342,0.81155 c -0.68365,0.75649 -0.88969,0.92634 -0.88969,0.73342 z m -55.93496,-2.49709 c 0,-0.043 0.3652,-0.40818 0.81155,-0.81156 l 0.81156,-0.73342 -0.73342,0.81156 c -0.68365,0.75648 -0.88969,0.92633 -0.88969,0.73342 z m 58.68176,-0.49942 c 0,-0.043 0.3652,-0.40818 0.81156,-0.81156 l 0.81155,-0.73342 -0.73342,0.81156 c -0.68365,0.75648 -0.88969,0.92633 -0.88969,0.73342 z m 105.84503,-1.10799 c -0.3106,-0.39605 -0.30177,-0.40488 0.0943,-0.0943 0.24035,0.1885 0.437,0.38514 0.437,0.437 0,0.20552 -0.20506,0.0732 -0.53128,-0.34272 z M 61.382141,210.483 c 0,-0.0519 0.196646,-0.2485 0.436991,-0.43699 0.396054,-0.31061 0.404886,-0.30178 0.09428,0.0943 -0.326213,0.41596 -0.531271,0.54824 -0.531271,0.34272 z M 460.636,209.14145 c -0.31061,-0.39606 -0.30178,-0.40489 0.0943,-0.0943 0.24034,0.18849 0.43699,0.38513 0.43699,0.43699 0,0.20552 -0.20506,0.0732 -0.53127,-0.34271 z m -159.78232,-0.68671 c 0.46591,-0.48069 0.90328,-0.87398 0.97195,-0.87398 0.0687,0 -0.25633,0.39329 -0.72224,0.87398 -0.4659,0.4807 -0.90328,0.87399 -0.97195,0.87399 -0.0687,0 0.25634,-0.39329 0.72224,-0.87399 z m -237.973282,0.28029 c 0,-0.0519 0.196647,-0.2485 0.436992,-0.43699 0.396054,-0.31061 0.404886,-0.30178 0.09428,0.0943 -0.326213,0.41595 -0.531271,0.54823 -0.531271,0.34271 z m 295.905922,0.0161 c 0,-0.043 0.3652,-0.40817 0.81155,-0.81155 l 0.81156,-0.73342 -0.73342,0.81155 c -0.68365,0.75649 -0.88969,0.92634 -0.88969,0.73342 z m 100.11466,-1.6074 -0.60537,-0.6867 0.6867,0.60537 c 0.37768,0.33296 0.6867,0.64197 0.6867,0.6867 0,0.19584 -0.20221,0.0365 -0.76803,-0.60537 z M 67.000607,204.33454 c 1.230336,-1.23607 2.293159,-2.24739 2.361829,-2.24739 0.06867,0 -0.881783,1.01132 -2.112119,2.24739 -1.230336,1.23606 -2.293159,2.24738 -2.361829,2.24738 -0.06867,0 0.881784,-1.01132 2.112119,-2.24738 z m 236.599883,1.12369 c 0.4659,-0.48069 0.90328,-0.87399 0.97195,-0.87399 0.0687,0 -0.25634,0.3933 -0.72224,0.87399 -0.46591,0.48069 -0.90329,0.87398 -0.97196,0.87398 -0.0687,0 0.25634,-0.39329 0.72225,-0.87398 z m 58.43205,-0.24971 c 0.32256,-0.34335 0.64266,-0.62428 0.71133,-0.62428 0.0687,0 -0.13906,0.28093 -0.46162,0.62428 -0.32256,0.34335 -0.64266,0.62427 -0.71133,0.62427 -0.0687,0 0.13906,-0.28092 0.46162,-0.62427 z m -1.01228,-2.30982 -0.86054,-0.93641 0.93641,0.86054 c 0.51503,0.4733 0.93641,0.89469 0.93641,0.93642 0,0.19068 -0.21131,0.011 -1.01228,-0.86055 z m -54.67297,-0.43699 c 0.46591,-0.48069 0.90329,-0.87398 0.97196,-0.87398 0.0687,0 -0.25634,0.39329 -0.72225,0.87398 -0.4659,0.48069 -0.90328,0.87399 -0.97195,0.87399 -0.0687,0 0.25634,-0.3933 0.72224,-0.87399 z m 146.81037,-1.06126 -0.60537,-0.6867 0.6867,0.60537 c 0.64182,0.56581 0.80121,0.76803 0.60537,0.76803 -0.0447,0 -0.35374,-0.30902 -0.6867,-0.6867 z M 70.995962,200.58889 c 0.248582,-0.27468 0.508152,-0.49942 0.576823,-0.49942 0.06867,0 -0.07853,0.22474 -0.327114,0.49942 -0.248582,0.27468 -0.508153,0.49942 -0.576823,0.49942 -0.06867,0 0.07853,-0.22474 0.327114,-0.49942 z m 286.778078,-0.6867 -0.86055,-0.93641 0.93642,0.86054 c 0.51502,0.4733 0.93641,0.89468 0.93641,0.93641 0,0.19068 -0.21131,0.011 -1.01228,-0.86054 z M 309.0941,199.4652 c 0.4659,-0.48069 0.90328,-0.87399 0.97195,-0.87399 0.0687,0 -0.25634,0.3933 -0.72224,0.87399 -0.46591,0.48069 -0.90328,0.87398 -0.97195,0.87398 -0.0687,0 0.25634,-0.39329 0.72224,-0.87398 z m 142.05293,0.18728 c -0.31061,-0.39605 -0.30177,-0.40489 0.0943,-0.0943 0.24035,0.18849 0.43699,0.38514 0.43699,0.43699 0,0.20552 -0.20506,0.0732 -0.53127,-0.34271 z M 72.369365,199.49577 c 0,-0.0519 0.196646,-0.2485 0.436991,-0.43699 0.396054,-0.31061 0.404886,-0.30177 0.09428,0.0943 -0.326214,0.41595 -0.531271,0.54823 -0.531271,0.34271 z m 377.279405,-1.09184 c -0.3106,-0.39605 -0.30177,-0.40488 0.0943,-0.0943 0.24035,0.18849 0.43699,0.38514 0.43699,0.43699 0,0.20552 -0.20505,0.0732 -0.53127,-0.34271 z m -95.24412,-1.62311 -0.98709,-1.06127 1.06127,0.98709 c 0.98696,0.91799 1.17601,1.13544 0.98708,1.13544 -0.0408,0 -0.51836,-0.47756 -1.06126,-1.06126 z m -43.06316,0.234 c 0,-0.043 0.3652,-0.40818 0.81155,-0.81156 l 0.81156,-0.73342 -0.73342,0.81156 c -0.68365,0.75648 -0.88969,0.92634 -0.88969,0.73342 z m 39.69039,-3.35537 -0.86055,-0.93641 0.93642,0.86054 c 0.51502,0.4733 0.93641,0.89468 0.93641,0.93641 0,0.19068 -0.21131,0.011 -1.01228,-0.86054 z m -36.94359,0.35885 c 0,-0.043 0.3652,-0.40817 0.81156,-0.81155 l 0.81155,-0.73342 -0.73342,0.81155 c -0.68365,0.75649 -0.88969,0.92634 -0.88969,0.73342 z m 33.69736,-3.35537 -0.86054,-0.93641 0.93641,0.86054 c 0.51503,0.4733 0.93641,0.89469 0.93641,0.93641 0,0.19069 -0.21131,0.011 -1.01228,-0.86054 z m -30.20142,-0.43699 c 0.4659,-0.48069 0.90328,-0.87398 0.97195,-0.87398 0.0687,0 -0.25634,0.39329 -0.72224,0.87398 -0.46591,0.48069 -0.90329,0.87398 -0.97196,0.87398 -0.0687,0 0.25634,-0.39329 0.72225,-0.87398 z m 26.83203,-2.68438 -0.98709,-1.06126 1.06127,0.98709 c 0.98697,0.91798 1.17601,1.13544 0.98709,1.13544 -0.0408,0 -0.51837,-0.47757 -1.06127,-1.06127 z m -24.08523,-0.31213 c 0.46591,-0.4807 0.90329,-0.87399 0.97196,-0.87399 0.0687,0 -0.25634,0.39329 -0.72225,0.87399 -0.4659,0.48069 -0.90328,0.87398 -0.97195,0.87398 -0.0687,0 0.25634,-0.39329 0.72224,-0.87398 z m 20.71246,-2.80924 -0.86054,-0.93641 0.93641,0.86054 c 0.51503,0.4733 0.93641,0.89468 0.93641,0.93641 0,0.19069 -0.21131,0.011 -1.01228,-0.86054 z m -17.96565,-0.18728 c 0.4659,-0.48069 0.90328,-0.87398 0.97195,-0.87398 0.0687,0 -0.25634,0.39329 -0.72224,0.87398 -0.46591,0.48069 -0.90328,0.87398 -0.97195,0.87398 -0.0687,0 0.25633,-0.39329 0.72224,-0.87398 z m 14.71942,-2.80923 -0.86054,-0.93641 0.93642,0.86054 c 0.51502,0.47329 0.93641,0.89468 0.93641,0.93641 0,0.19068 -0.21131,0.011 -1.01229,-0.86054 z m -11.97261,-0.18729 c 0.4659,-0.48069 0.90328,-0.87398 0.97195,-0.87398 0.0687,0 -0.25634,0.39329 -0.72225,0.87398 -0.4659,0.48069 -0.90328,0.87399 -0.97195,0.87399 -0.0687,0 0.25634,-0.3933 0.72225,-0.87399 z m 8.60323,-2.93408 -0.98709,-1.06127 1.06126,0.98709 c 0.98697,0.91798 1.17602,1.13544 0.98709,1.13544 -0.0408,0 -0.51836,-0.47757 -1.06126,-1.06126 z m -6.35585,0.48371 c 0,-0.043 0.3652,-0.40818 0.81156,-0.81156 l 0.81155,-0.73342 -0.73342,0.81156 c -0.68365,0.75648 -0.88969,0.92633 -0.88969,0.73342 z m 3.61027,-2.93541 c -0.0907,-0.1467 -0.35013,-0.19623 -0.57658,-0.11006 -0.33125,0.12605 -0.35037,0.0948 -0.0978,-0.15955 0.25315,-0.25501 0.39645,-0.23371 0.74021,0.11006 0.23446,0.23446 0.35266,0.42629 0.26267,0.42629 -0.09,0 -0.23781,-0.12003 -0.32848,-0.26674 z M 85.37398,166.48272 c 0.01198,-0.2909 0.07115,-0.35007 0.150866,-0.15087 0.07213,0.18026 0.06326,0.39563 -0.01971,0.47861 -0.08298,0.083 -0.141995,-0.0645 -0.131152,-0.32774 z m 352.60972,-1.60231 c 0,-0.34335 0.0567,-0.48381 0.12595,-0.31213 0.0693,0.17167 0.0693,0.45259 0,0.62427 -0.0693,0.17168 -0.12595,0.0312 -0.12595,-0.31214 z M 85.190159,160.01107 c 9.07e-4,-1.09872 0.04481,-1.51713 0.09756,-0.92981 0.05275,0.58733 0.05201,1.48629 -0.0016,1.99768 -0.05366,0.5114 -0.09682,0.0309 -0.09591,-1.06787 z m 352.793541,-4.1202 c 0,-0.34335 0.0567,-0.48382 0.12595,-0.31214 0.0693,0.17167 0.0693,0.4526 0,0.62427 -0.0693,0.17168 -0.12595,0.0312 -0.12595,-0.31213 z M 85.37398,153.99723 c 0.01198,-0.29089 0.07115,-0.35006 0.150866,-0.15086 0.07213,0.18026 0.06326,0.39563 -0.01971,0.47861 -0.08298,0.083 -0.141995,-0.0645 -0.131152,-0.32775 z m 352.3403,-1.49825 c 0.012,-0.2909 0.0712,-0.35007 0.15086,-0.15087 0.0721,0.18026 0.0633,0.39563 -0.0197,0.47861 -0.083,0.083 -0.142,-0.0645 -0.13115,-0.32774 z M 101.58539,111.34827 c 0,-0.0519 0.19665,-0.2485 0.43699,-0.43699 0.39606,-0.31061 0.40489,-0.30177 0.0943,0.0943 -0.32621,0.41595 -0.53127,0.54823 -0.53127,0.34271 z m 318.84736,-1.34155 c -0.31061,-0.39605 -0.30178,-0.40489 0.0943,-0.0943 0.41596,0.32621 0.54824,0.53127 0.34272,0.53127 -0.0519,0 -0.2485,-0.19664 -0.43699,-0.43699 z m -317.84852,0.093 c 0,-0.0519 0.19665,-0.2485 0.43699,-0.43699 0.39606,-0.31061 0.40489,-0.30177 0.0943,0.0943 -0.32621,0.41595 -0.53127,0.54823 -0.53127,0.34271 z m 316.73295,-1.4664 -0.4757,-0.56185 0.56185,0.47569 c 0.30902,0.26164 0.56185,0.51447 0.56185,0.56185 0,0.19983 -0.20097,0.0523 -0.648,-0.47569 z m -315.35955,-0.18728 c 0.24859,-0.27469 0.50816,-0.49942 0.57683,-0.49942 0.0687,0 -0.0785,0.22473 -0.32712,0.49942 -0.24858,0.27468 -0.50815,0.49941 -0.57682,0.49941 -0.0687,0 0.0785,-0.22473 0.32711,-0.49941 z m 313.74126,-1.68555 -0.60537,-0.6867 0.6867,0.60538 c 0.64182,0.56581 0.80121,0.76803 0.60537,0.76803 -0.0447,0 -0.35374,-0.30902 -0.6867,-0.68671 z m -312.11814,-0.18728 c 0.32256,-0.34335 0.64266,-0.62427 0.71133,-0.62427 0.0687,0 -0.13906,0.28092 -0.46162,0.62427 -0.32257,0.34335 -0.64266,0.62428 -0.71133,0.62428 -0.0687,0 0.13905,-0.28093 0.46162,-0.62428 z m 3.24622,-3.24622 c 0.32256,-0.34335 0.64266,-0.62428 0.71133,-0.62428 0.0687,0 -0.13906,0.28093 -0.46162,0.62428 -0.32256,0.34335 -0.64266,0.62427 -0.71133,0.62427 -0.0687,0 0.13906,-0.28092 0.46162,-0.62427 z m 305.12628,-0.31214 -0.60538,-0.6867 0.6867,0.60537 c 0.37769,0.33296 0.68671,0.64198 0.68671,0.68671 0,0.19584 -0.20222,0.0364 -0.76803,-0.60538 z m -303.37831,-1.15554 c 0,-0.0519 0.19665,-0.2485 0.43699,-0.437 0.39605,-0.3106 0.40489,-0.30177 0.0943,0.0943 -0.32621,0.41596 -0.53127,0.54823 -0.53127,0.34272 z m 301.61739,-0.34272 c -0.31061,-0.39605 -0.30178,-0.40488 0.0943,-0.0943 0.24034,0.1885 0.43699,0.38514 0.43699,0.437 0,0.20551 -0.20506,0.0732 -0.53127,-0.34272 z m -1.49826,-1.24855 c -0.31061,-0.396049 -0.30177,-0.404881 0.0943,-0.0943 0.41595,0.32621 0.54823,0.53127 0.34271,0.53127 -0.0519,0 -0.2485,-0.19665 -0.43699,-0.437 z M 170.70814,83.054782 c 0.18026,-0.07213 0.39563,-0.06326 0.47861,0.01971 0.083,0.08298 -0.0645,0.141995 -0.32774,0.131152 -0.2909,-0.01198 -0.35007,-0.07115 -0.15087,-0.150866 z m -12.9849,-0.24971 c 0.18026,-0.07213 0.39563,-0.06326 0.47861,0.01971 0.083,0.08298 -0.0645,0.141995 -0.32774,0.131152 -0.2909,-0.01198 -0.35007,-0.07115 -0.15087,-0.150866 z m 9.72307,0.0052 c 0.17167,-0.06927 0.4526,-0.06927 0.62427,0 0.17168,0.06927 0.0312,0.12595 -0.31213,0.12595 -0.34336,0 -0.48382,-0.05668 -0.31214,-0.12595 z m 188.29667,-0.0052 c 0.18026,-0.07213 0.39563,-0.06326 0.47861,0.01971 0.083,0.08298 -0.0645,0.141995 -0.32774,0.131152 -0.2909,-0.01198 -0.35007,-0.07115 -0.15087,-0.150866 z m 9.22365,0.0052 c 0.17168,-0.06927 0.4526,-0.06927 0.62427,0 0.17168,0.06927 0.0312,0.12595 -0.31213,0.12595 -0.34335,0 -0.48381,-0.05668 -0.31214,-0.12595 z M 201.21954,70.645601 c 0,-0.05185 0.19664,-0.2485 0.43699,-0.436992 0.39605,-0.310607 0.40488,-0.301774 0.0943,0.09428 -0.32622,0.415953 -0.53127,0.548232 -0.53127,0.342713 z m 120.07848,-0.842132 c -0.31061,-0.396054 -0.30177,-0.404886 0.0943,-0.09428 0.41595,0.326213 0.54823,0.531271 0.34271,0.531271 -0.0519,0 -0.2485,-0.196647 -0.43699,-0.436992 z M 202.46808,69.147343 c 0,-0.05185 0.19665,-0.2485 0.437,-0.436992 0.39605,-0.310606 0.40488,-0.301774 0.0943,0.09428 -0.32622,0.415954 -0.53128,0.548233 -0.53128,0.342713 z m 117.34463,-1.091842 -0.60537,-0.686701 0.6867,0.605374 c 0.37769,0.332956 0.6867,0.641972 0.6867,0.686702 0,0.195841 -0.20221,0.03645 -0.76803,-0.605375 z M 205.09004,66.245107 c 0.53643,-0.549362 1.03152,-0.998839 1.10019,-0.998839 0.0687,0 -0.31405,0.449477 -0.85048,0.998839 -0.53644,0.549361 -1.03153,0.998838 -1.1002,0.998838 -0.0687,0 0.31405,-0.449477 0.85049,-0.998838 z m 111.23843,-1.93525 -1.6159,-1.68554 1.68554,1.615899 c 1.5656,1.500915 1.79969,1.755181 1.6159,1.755181 -0.0383,0 -0.7968,-0.758493 -1.68554,-1.68554 z M 208.33626,62.998881 c 0.67638,-0.686701 1.28596,-1.248548 1.35463,-1.248548 0.0687,0 -0.42854,0.561847 -1.10492,1.248548 -0.67637,0.686702 -1.28596,1.248548 -1.35463,1.248548 -0.0687,0 0.42855,-0.561846 1.10492,-1.248548 z m 104.48458,-1.935249 -0.60537,-0.686702 0.6867,0.605375 c 0.64183,0.565813 0.80122,0.768028 0.60538,0.768028 -0.0447,0 -0.35375,-0.309016 -0.68671,-0.686701 z M 210.95821,60.657215 c 0,-0.05185 0.19665,-0.2485 0.43699,-0.436991 0.39606,-0.310607 0.40489,-0.301775 0.0943,0.09428 -0.32621,0.415953 -0.53127,0.548232 -0.53127,0.342712 z m 100.10171,-1.091841 c -0.3106,-0.396054 -0.30177,-0.404886 0.0943,-0.09428 0.41596,0.326213 0.54824,0.531271 0.34272,0.531271 -0.0519,0 -0.2485,-0.196647 -0.437,-0.436992 z m -98.60345,-0.156707 c 0,-0.05185 0.19665,-0.2485 0.43699,-0.436992 0.39606,-0.310606 0.40489,-0.301774 0.0943,0.09428 -0.32621,0.415953 -0.53127,0.548232 -0.53127,0.342712 z m 96.10636,-1.84097 c -0.31061,-0.396054 -0.30178,-0.404886 0.0943,-0.09428 0.41595,0.326213 0.54823,0.531271 0.34271,0.531271 -0.0519,0 -0.2485,-0.196647 -0.43699,-0.436992 z M 265.34809,41.103563 c 0.18026,-0.07213 0.39564,-0.06326 0.47861,0.01971 0.083,0.08298 -0.0645,0.141995 -0.32774,0.131152 -0.2909,-0.01198 -0.35007,-0.07115 -0.15087,-0.150866 z"
         id="path44" /><path
         style="fill:#ffcc00;fill-opacity:1"
         d="m 256.30001,477.23524 c -24.27918,-2.33372 -46.23403,-15.49534 -59.70784,-35.79398 -2.1187,-3.19187 -5.60525,-9.26738 -5.61455,-9.78367 -0.0137,-0.75932 -0.42975,-0.83214 -1.88525,-0.32997 -8.39028,2.8948 -16.69329,4.28234 -25.8287,4.3163 -9.27783,0.0345 -16.59284,-1.08786 -25.22067,-3.86965 -13.85929,-4.46851 -27.11942,-13.12855 -34.72538,-22.67875 -10.070352,-12.64454 -15.899256,-26.70745 -17.594899,-42.44972 -0.422766,-3.92494 -0.480712,-12.04761 -0.112484,-15.76768 0.582622,-5.88602 2.05327,-12.78509 3.837379,-18.00182 l 0.831375,-2.43093 -2.882118,-1.52685 C 79.433065,324.69958 73.991859,320.75658 67.789528,314.70995 54.102573,301.36658 45.839698,284.2704 43.770613,265.01398 c -0.464088,-4.31915 -0.460509,-7.11987 0.01489,-11.6468 2.449556,-23.3258 14.632412,-44.09457 33.962269,-57.89732 2.550023,-1.82088 6.260431,-4.06439 9.881721,-5.97503 l 2.649788,-1.39805 -0.831518,-2.43136 c -1.784252,-5.21714 -3.254882,-12.11602 -3.837522,-18.00223 -0.368228,-3.72007 -0.310282,-11.84274 0.112484,-15.76768 1.398618,-12.98471 5.789395,-25.25114 12.848595,-35.89487 4.43657,-6.68939 8.47758,-11.23888 13.72461,-15.45157 19.85775,-15.943234 46.3092,-21.62043 70.81966,-15.199812 1.78542,0.467699 4.23164,1.18609 5.43603,1.596424 l 2.18981,0.746062 1.26796,-2.526712 c 5.33595,-10.633113 13.67458,-20.626759 23.31874,-27.946919 11.53482,-8.75522 25.51907,-14.243677 40.32811,-15.827742 4.33579,-0.463782 7.61507,-0.459324 12.14621,0.01651 15.60085,1.638322 30.01938,7.591025 42.5402,17.562757 3.19512,2.544638 9.38824,8.771922 12.07816,12.144802 1.20484,1.510744 3.12499,4.151423 4.267,5.868177 2.12171,3.189494 5.879,9.877733 5.879,10.46502 0,0.17926 0.15887,0.264961 0.35305,0.190448 1.84453,-0.707815 7.17837,-2.256802 9.89013,-2.872172 25.0799,-5.691278 50.99625,0.863365 70.69199,17.879087 5.72073,4.94231 11.61605,12.85284 15.95421,21.40789 8.51558,16.79307 10.86007,35.71512 6.69782,54.05704 -0.61537,2.71177 -2.16436,8.0456 -2.87218,9.89014 -0.0756,0.19698 0.0143,0.35399 0.20338,0.35519 0.62495,0.004 6.79615,3.50605 10.32724,5.86063 18.66338,12.445 31.17097,31.6505 34.94822,53.66326 1.30813,7.62343 1.4134,13.33277 0.37713,20.45332 -3.36824,23.14417 -15.99233,43.15981 -35.31793,55.99696 -3.55475,2.36127 -9.71581,5.85272 -10.33466,5.85662 -0.22114,10e-4 -0.27945,0.15395 -0.16787,0.43913 4.94085,12.62783 6.52545,26.71764 4.48632,39.89112 -4.22303,27.28222 -22.53305,50.2328 -48.1782,60.38866 -13.12255,5.19672 -27.16206,6.64549 -41.32695,4.26463 -4.28157,-0.71965 -8.00889,-1.68384 -12.3249,-3.18821 l -3.14646,-1.09673 -1.5373,2.90235 c -8.32507,15.71725 -20.26321,27.51314 -35.64942,35.22466 -12.55526,6.29265 -27.31989,9.37899 -39.34042,8.22358 z M 297.7415,275.65226 c 35.70343,-38.99055 64.94714,-70.97081 64.98603,-71.06725 0.0793,-0.19665 -31.09204,-29.09194 -31.38349,-29.09194 -0.10227,0 -23.15753,25.02946 -51.23391,55.62101 l -51.04797,55.62101 -23.97261,-23.97031 c -13.18493,-13.18367 -24.08476,-23.96899 -24.22183,-23.96736 -0.13708,0.002 -6.9819,6.80933 -15.21071,15.12823 l -14.96148,15.12529 39.93244,39.93943 39.93245,39.93944 1.13289,-1.19282 c 0.62308,-0.65605 30.34477,-33.09418 66.04819,-72.08473 z"
         id="path43" /></g></g></svg>
