<?xml version="1.0" encoding="UTF-8" standalone="no"?>
<!-- Created with Inkscape (http://www.inkscape.org/) -->

<svg
   width="58mm"
   height="53mm"
   viewBox="0 0 58 52.999996"
   version="1.1"
   id="svg1"
   xml:space="preserve"
   sodipodi:docname="backwoods.svg"
   inkscape:version="1.3.2 (091e20e, 2023-11-25, custom)"
   xmlns:inkscape="http://www.inkscape.org/namespaces/inkscape"
   xmlns:sodipodi="http://sodipodi.sourceforge.net/DTD/sodipodi-0.dtd"
   xmlns:xlink="http://www.w3.org/1999/xlink"
   xmlns="http://www.w3.org/2000/svg"
   xmlns:svg="http://www.w3.org/2000/svg"><sodipodi:namedview
     id="namedview1"
     pagecolor="#505050"
     bordercolor="#ffffff"
     borderopacity="1"
     inkscape:showpageshadow="0"
     inkscape:pageopacity="0"
     inkscape:pagecheckerboard="1"
     inkscape:deskcolor="#505050"
     inkscape:document-units="mm"
     inkscape:zoom="1.4142136"
     inkscape:cx="-36.415999"
     inkscape:cy="183.49421"
     inkscape:window-width="1920"
     inkscape:window-height="1051"
     inkscape:window-x="-9"
     inkscape:window-y="-9"
     inkscape:window-maximized="1"
     inkscape:current-layer="g65" /><defs
     id="defs1"><linearGradient
       id="linearGradient64"
       inkscape:collect="always"><stop
         style="stop-color:#707070;stop-opacity:0.70169491;"
         offset="1"
         id="stop63" /><stop
         style="stop-color:#000000;stop-opacity:0;"
         offset="1"
         id="stop64" /></linearGradient><clipPath
       clipPathUnits="userSpaceOnUse"
       id="clipPath5"><path
         id="path5"
         style="stroke-width:0.1;stroke-linecap:square;paint-order:markers fill stroke;stop-color:#000000"
         d="M 438.25066,553.76374 H 1298.1212 V 755.15928 H 438.25066 Z"
         sodipodi:nodetypes="ccccc" /></clipPath><clipPath
       clipPathUnits="userSpaceOnUse"
       id="clipPath54"><path
         id="path54"
         style="stroke-width:0.0999999;stroke-linecap:square;paint-order:markers fill stroke;stop-color:#000000"
         d="m 1691.1994,-792.32001 h 1634.8919 v 92.82806 H 1691.1994 Z" /></clipPath><linearGradient
       id="linearGradient59"
       inkscape:collect="always"><stop
         style="stop-color:#000000;stop-opacity:1;"
         offset="1"
         id="stop60" /><stop
         style="stop-color:#000000;stop-opacity:0;"
         offset="1"
         id="stop61" /></linearGradient><radialGradient
       inkscape:collect="always"
       xlink:href="#linearGradient59"
       id="radialGradient1"
       cx="-116.58234"
       cy="90.575523"
       fx="-116.58234"
       fy="90.575523"
       r="75.663757"
       gradientTransform="matrix(1,0,0,0.54453333,0,41.254133)"
       gradientUnits="userSpaceOnUse" /><radialGradient
       inkscape:collect="always"
       xlink:href="#linearGradient59"
       id="radialGradient1-6"
       cx="-116.58234"
       cy="90.575523"
       fx="-116.58234"
       fy="90.575523"
       r="75.663757"
       gradientTransform="matrix(1,0,0,0.54453333,0,41.254133)"
       gradientUnits="userSpaceOnUse" /><radialGradient
       inkscape:collect="always"
       xlink:href="#linearGradient64"
       id="radialGradient1-8"
       cx="-116.58234"
       cy="90.575523"
       fx="-116.58234"
       fy="90.575523"
       r="75.663757"
       gradientTransform="matrix(1.0466717,0,0,0.56994761,7.1521408,38.660628)"
       gradientUnits="userSpaceOnUse" /><radialGradient
       inkscape:collect="always"
       xlink:href="#linearGradient64"
       id="radialGradient1-86"
       cx="-116.58234"
       cy="90.575523"
       fx="-116.58234"
       fy="90.575523"
       r="75.663757"
       gradientTransform="matrix(1.0466717,0,0,0.56994761,-169.29504,526.6588)"
       gradientUnits="userSpaceOnUse" /><radialGradient
       inkscape:collect="always"
       xlink:href="#linearGradient64"
       id="radialGradient1-3"
       cx="-116.58234"
       cy="90.575523"
       fx="-116.58234"
       fy="90.575523"
       r="75.663757"
       gradientTransform="matrix(1.0466717,0,0,0.56994761,178.24767,425.45147)"
       gradientUnits="userSpaceOnUse" /></defs><g
     inkscape:label="Camada 1"
     inkscape:groupmode="layer"
     id="layer1"><g
       id="g9227"
       transform="matrix(0.26027886,0,0,0.26027886,150.52638,137.2164)"><text
         xml:space="preserve"
         style="font-style:normal;font-variant:normal;font-weight:normal;font-stretch:normal;font-size:282.326px;font-family:'Eras Bold ITC';-inkscape-font-specification:'Eras Bold ITC, Normal';font-variant-ligatures:normal;font-variant-caps:normal;font-variant-numeric:normal;font-variant-east-asian:normal;fill:#111827;fill-opacity:1;stroke:none;stroke-width:1.01813;stroke-linecap:round;stroke-linejoin:round;stroke-dasharray:none;stroke-dashoffset:0;stroke-opacity:1;paint-order:normal"
         x="-498.67667"
         y="-217.21606"
         id="text17"><tspan
           sodipodi:role="line"
           id="tspan17"
           x="-498.67667"
           y="-217.21606"
           style="stroke-width:1.01814" /></text><g
         id="g1"
         transform="matrix(1.4459658,0,0,1.4459658,-230.39671,-245.32583)"><path
           style="fill:#707070;fill-opacity:0.701961;stroke:none;stroke-width:0.192079"
           d="m -240.57079,-152.25522 c 7.81247,-7.37586 17.87949,-11.2015 27.85036,-14.59899 l 13.20646,41.19158 18.86398,-47.56121 c 16.23663,-1.11549 24.01949,-1.29847 36.52765,0.19057 l 13.65818,47.26364 17.08858,-41.29215 c 11.1235,3.77984 17.923474,6.45086 26.80815,13.40406 l -25.79171,50.8211 c -13.02708,4.448285 -24.84324,3.29335 -39.00519,4.678753 l -13.14995,-43.938053 -19.37555,43.855465 c -14.0605,1.099857 -26.18413,-3.311865 -38.71297,-7.882005 z"
           id="path1"
           sodipodi:nodetypes="cccccccccccccc" /><g
           id="g65"
           transform="translate(-224.26587,-570.72788)"><g
             id="g4"
             transform="translate(3.2312006)"><path
               style="fill:none;fill-opacity:1;stroke:#b64900;stroke-width:0.0768407;stroke-dasharray:none;stroke-opacity:1"
               d="m 30.112008,491.73837 -0.14692,-2.23561 z m -0.0952,-1.5446 1.2667,-0.92918"
               id="path65"
               sodipodi:nodetypes="ccccc" /><g
               id="g3"><g
                 id="g2"><path
                   style="fill:none;fill-opacity:1;stroke:#b64900;stroke-width:0.192102;stroke-dasharray:none;stroke-opacity:1"
                   d="m 28.436298,489.24868 0.32562,1.27866 4.09441,3.39843 h 66.82525"
                   id="path64"
                   sodipodi:nodetypes="cccc" /><text
                   xml:space="preserve"
                   style="font-style:normal;font-variant:normal;font-weight:normal;font-stretch:normal;font-size:21.3566px;font-family:'Eras Bold ITC';-inkscape-font-specification:'Eras Bold ITC, Normal';font-variant-ligatures:normal;font-variant-caps:normal;font-variant-numeric:normal;font-variant-east-asian:normal;fill:#ffffff;fill-opacity:1;stroke:none;stroke-width:0.141995;stroke-linecap:round;stroke-linejoin:round;stroke-dasharray:none;stroke-dashoffset:0;stroke-opacity:1;paint-order:normal"
                   x="38.228138"
                   y="445.1239"
                   id="text53-7-9-1"
                   transform="scale(0.90325,1.1071132)"><tspan
                     sodipodi:role="line"
                     id="tspan53-8-6-6"
                     style="font-style:normal;font-variant:normal;font-weight:normal;font-stretch:normal;font-size:21.3566px;font-family:'Eras Bold ITC';-inkscape-font-specification:'Eras Bold ITC, Normal';font-variant-ligatures:normal;font-variant-caps:normal;font-variant-numeric:normal;font-variant-east-asian:normal;fill:#ffffff;fill-opacity:1;stroke:none;stroke-width:0.141995;stroke-dasharray:none;stroke-opacity:1"
                     x="38.228138"
                     y="445.1239">woods</tspan></text><path
                   style="fill:#0aa857;stroke:none;stroke-width:0.469453"
                   d="m 10.932018,481.51975 c 2.55794,7.03317 9.49033,14.86518 16.78087,9.67592 0.27084,-0.19277 0.72388,-0.39953 0.99592,-0.62917 -2.78044,-3.27932 -5.14497,-5.2107 -9.06716,-6.97197 3.61458,1.35086 6.74518,3.43166 8.91114,6.11082 1.97571,-9.66005 -12.0012,-10.64173 -17.73065,-8.27514 m 7.32607,1.11686 0.97434,0.79258 -0.97434,-0.79258 m 11.8108,7.12013 c 1.18433,-1.40389 1.62443,-3.03557 2.10396,-4.75636 -0.0124,1.65721 -0.58381,3.11769 -1.13958,4.646 l 0.36832,-0.19843 c 3.01228,-1.75509 2.72845,-4.49214 0.68568,-7.04289 -2.19512,2.07965 -3.27177,4.15777 -2.15931,7.11597 m 2.60766,-4.09477 c 0.13679,0.78178 0.30226,1.56261 -0.2757,2.36803 l 1.01802,-1.0495 c -0.6954,-3.96652 -1.32085,-1.96181 -0.7423,-1.31853 z"
                   id="path6720-3-6-1-6-5"
                   sodipodi:nodetypes="cscccccccccccccccccc"
                   inkscape:transform-center-x="1.1814865"
                   inkscape:transform-center-y="1.3761764" /></g><path
                 style="fill:#044925;fill-opacity:1;stroke:none;stroke-width:0.476863"
                 d="m 10.807618,481.3932 c 2.62243,7.07851 9.59527,15.06489 17.06963,9.84219 0.27766,-0.19393 0.56279,-0.43877 0.84168,-0.66988 -7.01503,1.8045 -12.62094,-2.99022 -17.9059,-9.1745"
                 id="path6720-3-6-1-6-5-5"
                 sodipodi:nodetypes="cscc"
                 inkscape:transform-center-x="1.2112756"
                 inkscape:transform-center-y="1.3850476" /></g></g><g
             id="g6"
             transform="translate(-93.876015,60.095276)"><g
               id="g5"
               transform="translate(33.679299,134.29596)"><path
                 style="fill:#707070;fill-opacity:0.701961;stroke:none;stroke-width:0.132853"
                 d="M 118.44674,276.34976 H 89.253302 l -0.0559,-86.8948 h 34.604888 c 45.09303,0.57257 34.82282,30.44656 23.69881,39.12452 l -0.52177,0.38446 -0.59042,0.42016 -0.35426,0.24166 -0.19772,0.13182 0.77716,0.31306 0.56571,0.22793 0.45312,0.20322 c 16.60553,7.4471 30.49385,45.83244 -24.51414,45.83244 v -22.33878 h 1.10295 1.21947 0.75343 0.97091 0.57478 0.97092 0.3806 l 0.80003,-0.0388 0.57478,-0.0388 c 3.85894,-0.40291 4.86089,-1.07854 5.50059,-3.51736 l 0.0659,-0.41741 0.011,-0.53825 -0.0329,-0.47234 -0.10985,-0.48332 -0.0796,-0.25265 -0.11534,-0.26089 -0.12358,-0.23891 -0.0961,-0.16202 -0.18124,-0.24441 -0.13731,-0.16752 -0.22793,-0.22793 -0.29933,-0.24441 -0.25265,-0.16751 -0.19498,-0.11809 -0.34601,-0.18399 -0.43664,-0.18949 c -3.31238,-1.05418 -6.92419,-0.68377 -10.33929,-0.68377 v -23.16659 h 0.60416 l 0.52726,-0.022 0.52726,-0.033 0.8568,-0.0769 0.9337,-0.16477 1.15338,-0.27461 0.92271,-0.3625 0.72499,-0.4284 0.24166,-0.17575 0.40643,-0.35151 0.26363,-0.27462 0.27462,-0.36249 0.23068,-0.43938 0.18674,-0.43939 0.0659,-0.26912 0.0851,-0.37897 0.0275,-0.2499 0.022,-0.23068 0.005,-0.19223 -0.003,-0.39545 -0.0137,-0.26088 -0.0577,-0.40369 -0.0824,-0.35425 -0.0961,-0.2911 -0.0824,-0.2087 c -1.83371,-3.12375 -5.83917,-2.76637 -9.00566,-2.76637 h -1.66997 -1.66997 z"
                 id="path4-2"
                 sodipodi:nodetypes="ccccccccccccccccccccccccccccccccccccccccccccccccccccccccccccccccccccccc" /><path
                 style="fill:#ffffff;fill-opacity:1;stroke:none;stroke-width:0.132853"
                 d="M 118.49068,278.1073 H 89.297246 l -0.0559,-86.8948 h 34.604884 c 45.10164,0.59266 35.50093,32.02882 23.69881,39.12453 l -0.52177,0.38446 -0.59042,0.42016 -0.35426,0.24166 -0.19772,0.13182 0.77716,0.31306 0.56571,0.22793 0.45312,0.20322 c 10.37256,4.6518 18.42346,21.48546 10.53983,33.54717 -4.73734,7.24799 -14.45433,13.52718 -35.05397,12.28527 V 255.753 h 1.10295 1.21947 0.75343 c 2.89923,0 5.0566,0.0876 6.60994,-0.41313 2.81624,-0.90781 3.64697,-2.84495 3.31361,-4.33499 -0.25875,-1.15654 -0.91599,-2.28196 -2.49654,-3.05569 -1.44389,-0.70682 -1.72838,-0.80808 -10.52279,-0.74072 l -0.0275,-23.26989 h 0.60416 l 0.52726,-0.022 c 2.04069,-0.0757 4.19134,-0.50476 5.76693,-1.86744 l 0.26363,-0.27462 0.27462,-0.36249 0.23068,-0.43938 0.18674,-0.43939 0.0659,-0.26912 0.0851,-0.37897 0.0275,-0.2499 0.022,-0.23068 0.005,-0.19223 -0.003,-0.39545 -0.0137,-0.26088 -0.0577,-0.40369 -0.0824,-0.35425 c -1.19271,-3.33288 -5.70147,-3.05751 -8.57054,-3.06422 h -2.28359 -1.66997 z"
                 id="path4-5"
                 sodipodi:nodetypes="ccccccccccccscccccssscccccccccccccccccccccc" /></g></g></g></g></g></g></svg>
